<!--?xml version="1.0" standalone="no"?--><svg xmlns="http://www.w3.org/2000/svg" width="300.000000pt" height="201.000000pt" viewBox="0 0 300.000000 201.000000" preserveAspectRatio="xMidYMid meet">
<metadata>
  <rdf:rdf xmlns:rdf="http://www.w3.org/1999/02/22-rdf-syntax-ns#" xmlns:rdfs="http://www.w3.org/2000/01/rdf-schema#" xmlns:dc="http://purl.org/dc/elements/1.1/">
    <rdf:description dc:title="cancelled seal" dc:publisher="Hiox" dc:date="2015-06-19" dc:format="image/svg+xml" dc:language="en">
      <dc:creator>
        <rdf:bag>
          <rdf:li>svgimages.com</rdf:li>
        </rdf:bag>
      </dc:creator>
    </rdf:description>
  </rdf:rdf>
</metadata>
<g transform="translate(0.000000,201.000000) scale(0.100000,-0.100000)" fill="#CE3334" stroke="none">
<path class="node" id="node1" d="M2510 1923 c-60 -25 -203 -84 -245 -100 -22 -8 -58 -24 -80 -34 -22
-10 -62 -25 -88 -34 -27 -8 -67 -24 -90 -35 -22 -11 -46 -20 -52 -20 -6 0 -30
-9 -53 -20 -22 -11 -46 -20 -52 -20 -6 0 -27 -8 -48 -19 -20 -10 -66 -28 -102
-40 -36 -13 -78 -29 -95 -36 -26 -12 -143 -46 -213 -62 -12 -3 -25 -9 -28 -14
-3 -5 -16 -9 -29 -9 -13 0 -26 -4 -29 -9 -3 -4 -27 -14 -53 -21 -48 -14 -243
-91 -275 -110 -10 -5 -24 -10 -31 -10 -7 0 -28 -11 -47 -25 -19 -14 -41 -25
-49 -25 -9 0 -27 -9 -41 -20 -14 -11 -34 -20 -45 -20 -26 0 -189 -76 -193 -90
-5 -14 51 -12 133 5 38 8 79 15 91 15 12 0 40 14 63 31 24 17 49 28 58 25 8
-3 33 3 56 14 22 11 47 20 54 20 7 0 27 9 45 20 18 11 39 20 46 20 7 0 42 14
78 30 35 17 78 33 94 37 17 3 33 10 36 14 3 5 12 9 20 9 8 0 39 11 67 24 51
23 143 62 182 76 11 4 31 12 45 18 14 6 68 27 120 47 52 21 109 43 125 50 17
7 62 25 100 40 39 15 84 33 100 40 17 8 71 29 121 49 50 19 100 39 110 44 11
6 46 20 79 32 33 12 84 33 114 46 43 20 56 22 68 12 24 -19 133 -253 133 -285
0 -15 12 -50 25 -78 14 -27 25 -54 25 -58 0 -4 9 -27 20 -49 11 -23 20 -48 20
-55 0 -8 9 -33 20 -55 11 -23 20 -45 20 -50 0 -4 11 -31 25 -60 14 -28 25 -59
25 -69 0 -18 -89 -69 -121 -69 -10 0 -21 -4 -24 -10 -3 -5 -15 -10 -25 -10
-11 0 -24 -9 -29 -19 -14 -25 15 -33 64 -20 51 14 157 66 166 81 15 24 9 93
-11 133 -11 22 -20 45 -20 53 0 7 -9 37 -21 65 -12 29 -25 61 -29 72 -4 11
-20 48 -34 81 -14 34 -26 66 -26 72 0 6 -9 27 -20 47 -11 20 -20 40 -20 45 0
6 -11 33 -25 62 -14 28 -25 58 -25 65 0 7 -5 23 -12 36 -24 47 -28 57 -28 73
0 9 -9 29 -21 45 -23 33 -61 37 -119 12z" style="position: relative;"></path>
<path class="node" id="node2" d="M2465 1611 c-16 -4 -46 -15 -65 -23 -19 -9 -43 -18 -53 -22 -27 -9
-31 -33 -12 -74 22 -48 33 -73 90 -214 26 -65 51 -118 54 -118 4 0 42 12 86
26 117 38 151 79 121 147 -7 18 -19 48 -26 67 -7 19 -23 59 -36 88 -13 29 -24
56 -24 60 0 4 -10 19 -23 34 -24 31 -65 41 -112 29z m32 -128 c7 -16 24 -57
38 -93 15 -36 31 -73 36 -82 9 -17 -6 -36 -18 -24 -9 9 -83 199 -83 214 0 21
15 13 27 -15z" style="position: relative;"></path>
<path class="node" id="node3" d="M2240 1523 c-8 -3 -34 -13 -57 -24 -24 -10 -49 -19 -58 -19 -26 0
-30 -48 -6 -80 11 -16 21 -37 21 -48 0 -10 4 -22 8 -27 5 -6 15 -30 22 -55 7
-25 29 -80 49 -123 40 -88 43 -89 133 -48 24 10 51 21 61 25 21 7 22 44 1 74
-13 18 -21 21 -53 16 -33 -5 -38 -3 -49 21 -16 36 -15 45 7 45 33 0 43 23 25
59 -14 29 -20 32 -53 29 -34 -3 -36 -1 -39 27 -2 23 2 32 20 40 13 6 24 19 26
30 3 25 -37 64 -58 58z" transform="" style="position: relative; fill: rgb(206, 51, 52); stroke: none;"></path>
<path class="node" id="node4" d="M1923 1396 c-35 -17 -29 -49 37 -201 10 -22 21 -51 25 -65 3 -14 15
-44 26 -67 10 -24 19 -47 19 -52 0 -25 34 -27 88 -6 32 12 65 25 75 28 19 7
23 47 7 78 -11 20 -45 26 -55 9 -9 -14 -25 -12 -25 3 0 6 -11 35 -25 62 -13
28 -25 57 -25 66 0 9 -9 28 -20 42 -11 14 -20 34 -20 45 0 12 -4 24 -10 27 -5
3 -10 15 -10 26 0 15 -7 19 -32 18 -18 -1 -43 -6 -55 -13z" style="position: relative;"></path>
<path class="node" id="node5" d="M1732 1319 c-42 -18 -43 -20 -37 -51 4 -18 20 -60 36 -93 16 -33 29
-65 29 -70 0 -6 11 -35 25 -63 14 -29 25 -58 25 -66 0 -8 5 -18 10 -21 6 -3
10 -15 10 -26 0 -14 7 -19 25 -19 24 0 33 3 82 28 13 7 32 12 43 12 26 0 34
21 23 57 -8 23 -17 29 -48 33 -21 3 -42 12 -46 20 -8 15 -69 163 -94 229 -17
46 -33 52 -83 30z" style="position: relative;"></path>
<path class="node" id="node6" d="M1570 1256 c-14 -7 -42 -21 -62 -30 -47 -19 -48 -34 -8 -119 17 -36
30 -68 30 -72 0 -4 14 -36 30 -72 17 -35 30 -68 30 -72 0 -4 7 -22 16 -39 11
-22 23 -32 38 -32 24 0 151 54 159 67 2 5 -2 23 -10 42 -13 31 -16 33 -49 26
-22 -4 -41 -2 -50 6 -21 17 -17 57 6 69 23 12 26 47 5 73 -10 14 -21 17 -44
12 -23 -5 -32 -2 -40 14 -15 27 -14 41 2 41 28 0 45 33 35 68 -7 26 -13 32
-36 32 -15 0 -38 -7 -52 -14z" style="position: relative;"></path>
<path class="node" id="node7" d="M1315 1158 c-56 -19 -79 -36 -100 -74 -28 -49 -25 -61 40 -214 54
-127 58 -133 100 -146 48 -16 108 1 149 44 47 48 51 63 30 127 -17 57 -22 61
-52 46 -9 -6 -29 -12 -44 -16 -21 -4 -28 -11 -28 -30 0 -13 5 -27 10 -30 6 -3
10 -18 10 -33 0 -26 0 -26 -18 -7 -21 22 -78 161 -88 215 -10 46 10 32 35 -25
21 -48 34 -53 65 -30 11 8 28 15 38 15 20 0 26 44 8 55 -6 4 -17 21 -24 40
-23 54 -78 80 -131 63z" style="position: relative;"></path>
<path class="node" id="node8" d="M335 1050 c-11 -4 -60 -25 -110 -45 -50 -20 -105 -43 -122 -51 -54
-23 -52 -66 8 -201 11 -26 25 -57 29 -68 5 -11 29 -66 54 -122 25 -56 46 -107
46 -113 0 -6 4 -18 9 -28 11 -22 63 -142 87 -204 26 -65 48 -93 68 -85 9 4 16
17 16 31 0 53 -56 241 -90 301 -11 20 -20 41 -20 47 0 6 -25 62 -55 123 -30
62 -55 115 -55 118 0 3 -19 36 -41 72 -23 36 -40 67 -38 68 16 11 120 57 128
57 6 0 30 9 54 19 23 11 74 32 112 47 39 14 74 30 79 35 13 11 -132 11 -159
-1z" style="position: relative;"></path>
<path class="node" id="node9" d="M1057 1045 c-21 -15 -17 -62 10 -103 8 -13 12 -26 10 -29 -8 -7 -67
48 -67 62 0 38 -56 42 -100 7 l-22 -18 22 -55 c12 -29 35 -81 51 -113 16 -32
29 -65 29 -73 0 -7 4 -21 9 -31 6 -9 17 -38 27 -64 19 -53 20 -54 68 -34 47
19 49 28 24 80 -12 25 -18 49 -14 53 5 5 11 2 14 -5 9 -27 64 -82 81 -82 23 0
81 29 81 40 0 10 -55 147 -87 220 -12 25 -26 61 -33 80 -24 68 -32 80 -59 80
-14 0 -34 -7 -44 -15z" style="position: relative;"></path>
<path stroke-width="20" class="node" id="node10" d="M730 915 c-14 -8 -32 -14 -41 -15 -36 0 -42 -26 -24 -102 10 -40 21
-77 26 -83 5 -5 9 -21 9 -36 0 -14 11 -61 25 -103 14 -42 25 -83 25 -92 0 -23
27 -28 55 -10 13 9 31 16 40 16 11 0 15 11 15 45 0 50 14 59 32 20 13 -28 47
-33 91 -12 34 16 34 34 -3 97 -16 28 -30 53 -30 55 0 2 -20 36 -45 74 -25 38
-45 72 -45 75 0 4 -12 24 -26 46 -29 44 -59 51 -104 25z m106 -253 c-11 -11
-36 22 -36 47 0 26 0 26 21 -8 11 -18 18 -36 15 -39z" style="position: relative;"></path>
<path class="node" id="node11" d="M2475 921 c-3 -6 -13 -11 -21 -11 -8 0 -37 -11 -66 -25 -28 -14 -58
-25 -65 -25 -7 0 -28 -9 -48 -20 -20 -11 -41 -20 -48 -20 -7 0 -37 -11 -65
-25 -29 -14 -56 -25 -60 -25 -5 0 -27 -9 -50 -20 -22 -11 -46 -20 -52 -20 -5
0 -18 -4 -28 -9 -9 -5 -48 -22 -87 -37 -38 -15 -85 -36 -103 -46 -18 -10 -41
-18 -52 -18 -10 0 -22 -4 -25 -10 -3 -5 -13 -10 -21 -10 -8 0 -37 -11 -66 -25
-28 -14 -58 -25 -65 -25 -7 0 -32 -8 -56 -19 -23 -10 -62 -26 -87 -36 -25 -10
-63 -26 -85 -35 -22 -10 -51 -21 -65 -25 -14 -4 -47 -17 -75 -30 -27 -13 -76
-33 -109 -44 -32 -12 -77 -30 -100 -40 -22 -9 -61 -26 -86 -36 -25 -10 -58
-23 -75 -30 -16 -7 -46 -18 -65 -25 -19 -7 -39 -16 -45 -20 -5 -3 -30 -13 -55
-20 -45 -14 -69 -34 -70 -58 0 -28 50 -25 135 8 11 4 43 15 70 23 28 9 87 30
133 46 46 17 104 38 128 46 25 8 63 24 84 35 22 11 44 20 50 20 6 0 30 9 52
20 23 11 49 20 58 20 10 0 29 11 44 25 15 14 38 25 51 25 13 0 27 4 30 10 3 6
17 10 30 10 13 0 27 4 30 10 3 5 15 10 26 10 10 0 27 4 37 9 28 14 62 29 147
61 44 17 95 40 113 51 18 10 40 19 48 19 8 0 52 18 96 40 45 22 88 40 95 40 7
0 21 4 31 9 9 5 37 18 62 29 25 11 80 36 122 56 43 20 80 36 82 36 3 0 40 16
83 36 82 38 106 48 136 58 11 3 17 13 15 23 -2 13 -15 19 -45 21 -22 2 -44 -2
-48 -7z" style="position: relative;"></path>
<path class="node" id="node12" d="M427 799 c-40 -21 -77 -71 -77 -105 0 -11 11 -44 25 -72 14 -29 25
-57 25 -63 0 -21 61 -137 83 -157 41 -38 109 -33 170 13 48 37 71 91 50 118
-6 6 -13 24 -17 38 -10 46 -59 46 -100 0 -18 -19 -18 -26 -7 -57 7 -20 10 -38
7 -41 -11 -11 -33 17 -46 59 -8 24 -24 66 -36 93 -29 65 -39 105 -26 105 5 0
20 -21 32 -46 21 -46 22 -46 62 -41 53 7 77 30 60 57 -6 11 -12 28 -12 38 0
10 -15 32 -33 50 -27 26 -41 32 -77 32 -25 -1 -62 -10 -83 -21z" style="position: relative;"></path>
</g>
<g transform="translate(0.000000,201.000000) scale(0.100000,-0.100000)" fill="#FFFFFF" stroke="none">



</g>
</svg>