<?xml version="1.0" encoding="utf-8"?>
<!-- Generator: Adobe Illustrator 16.0.0, SVG Export Plug-In . SVG Version: 6.00 Build 0)  -->
<!DOCTYPE svg PUBLIC "-//W3C//DTD SVG 1.1//EN" "http://www.w3.org/Graphics/SVG/1.1/DTD/svg11.dtd">
<svg version="1.1" id="Layer_1" xmlns="http://www.w3.org/2000/svg" xmlns:xlink="http://www.w3.org/1999/xlink" x="0px" y="0px"
	 width="105px" height="74.583px" viewBox="0 0 105 74.583" enable-background="new 0 0 105 74.583" xml:space="preserve">
<path d="M47.277,52.981c0.007,0.004,0.014,0.007,0.021,0.01C47.292,52.988,47.285,52.985,47.277,52.981z"/>
<g>
	<path fill="none" d="M18.799,21.079c0.07-0.098,0.142-0.191,0.214-0.289C18.941,20.887,18.87,20.981,18.799,21.079z"/>
	<path fill="none" d="M19.136,20.63c0.121-0.155,0.243-0.314,0.368-0.467C19.379,20.316,19.257,20.471,19.136,20.63z"/>
	<path fill="none" d="M15.229,45.542l0.001,0.003L15.229,45.542z"/>
	<path fill="#666766" d="M15.23,45.545C15.238,45.569,15.238,45.569,15.23,45.545L15.23,45.545z"/>
	<path fill="#666766" d="M19.013,20.79c0.041-0.053,0.082-0.107,0.123-0.159C19.095,20.682,19.054,20.737,19.013,20.79z"/>
	<path fill="#9E9E9E" d="M39.592,12.799c-0.017-0.009-0.035-0.015-0.052-0.021c-3.526-1.462-8.819-0.891-13.826,1.99
		c-0.909,0.524-1.808,1.123-2.686,1.801c-1.288,1.083-2.467,2.288-3.523,3.592c-0.001,0-0.001,0.003-0.001,0.003
		c-0.125,0.152-0.247,0.312-0.368,0.467c-0.041,0.052-0.082,0.106-0.123,0.159c-0.072,0.098-0.144,0.191-0.214,0.289
		c-0.032,0.043-0.065,0.086-0.098,0.132c-0.981,1.349-1.834,2.792-2.544,4.306c4.598-9.061,20.423-14.575,29.482-8.927
		C43.143,14.478,39.994,12.952,39.592,12.799z"/>
	<path fill="#666766" d="M19.504,20.164c0,0,0-0.003,0.001-0.003C19.504,20.161,19.504,20.164,19.504,20.164z"/>
	<path fill="#666766" d="M18.799,21.079c-1.055,1.426-1.966,2.958-2.709,4.569c0.021-0.046,0.045-0.089,0.067-0.132
		c0.71-1.514,1.563-2.957,2.544-4.306C18.734,21.165,18.767,21.122,18.799,21.079z"/>
	<path fill="none" d="M93.305,16.602c-0.012-0.016-0.027-0.024-0.042-0.037c0.012,0.01,0.027,0.021,0.039,0.034
		C93.305,16.599,93.305,16.602,93.305,16.602z"/>
	<path fill="#9E9E9E" d="M85.474,48.673c0.019,0.015,0.034,0.03,0.049,0.049c0.278-0.488,0.537-0.986,0.781-1.489
		c1.022-2.121,1.74-4.389,2.14-6.708c0.394-2.298,0.479-4.65,0.254-6.974c-0.08-0.833-0.202-1.66-0.36-2.48
		c-0.421,0.946-0.889,1.87-1.397,2.768c-0.501,0.876-1.044,1.728-1.621,2.549c-0.382,0.53-0.778,1.055-1.181,1.568
		c-0.317,0.396-0.642,0.787-0.977,1.166c-1.209,1.373-2.533,2.637-3.962,3.784c-4.736,3.806-10.589,6.278-16.986,6.857
		c-0.955,0.086-1.919,0.132-2.896,0.132c-1.548,0-3.067-0.113-4.557-0.327C61.988,60.609,78.895,60.129,85.474,48.673z"/>
	<path fill="#666766" d="M93.302,16.599c0-0.003-0.003-0.003-0.003-0.003c0.019,0.015,0.037,0.03,0.062,0.049
		C93.342,16.629,93.321,16.614,93.302,16.599z"/>
	<path fill="#666766" d="M93.263,16.565c-0.306-0.259-0.227-0.191,0.036,0.031c0,0,0.003,0,0.003,0.003
		C93.291,16.586,93.275,16.575,93.263,16.565z"/>
	<path fill="#666766" d="M101.994,33.084c-0.237-2.051-0.717-4.077-1.431-6.018c-0.724-1.969-1.691-3.846-2.878-5.573
		c-0.846-1.229-1.801-2.38-2.851-3.436c-1.065-1.068-2.219-2.039-3.445-2.912c-1.392-0.985-2.894-1.818-4.456-2.499
		c-0.54-0.235-1.086-0.455-1.642-0.656c-0.849-0.309-1.703-0.583-2.566-0.836c-0.458-0.132-0.919-0.254-1.383-0.376
		c-0.055-0.015-0.109-0.027-0.165-0.042c-2.483-0.626-5.022-1.035-7.577-1.249c-2.591-0.22-5.203-0.234-7.798-0.039
		c-2.548,0.192-5.084,0.586-7.565,1.221c-2.34,0.598-4.629,1.407-6.793,2.478c0.018,0,0.037,0.004,0.054,0
		c-2.133,1.09-4.107,2.484-5.854,4.126c-1.726,1.624-3.227,3.485-4.452,5.515c-1.226,2.03-2.175,4.224-2.808,6.51
		c-0.609,2.197-0.924,4.471-0.924,6.751c0,0.399,0,0.796,0,1.196c0,0.988,0,1.975,0,2.963c0,1.385,0,2.768,0,4.15
		c0,1.587,0,3.174,0,4.761c0,1.593,0,3.189,0,4.782c0,1.349,0,2.698,0,4.047c-0.293,0.131-3.866,0.562-5.361,0.51
		c-1.456-0.052-2.918-0.363-4.299-0.815c-1.292-0.424-2.551-0.971-3.754-1.608c-1.164-0.616-2.278-1.33-3.297-2.166
		c-1.017-0.83-1.937-1.782-2.699-2.851c0-0.003-0.002-0.003-0.002-0.006c-2.966-4.236-4.433-9.434-4.393-14.585
		c0.021-2.826,0.489-5.646,1.411-8.319c0.304-0.882,0.656-1.748,1.053-2.591c-0.021,0.043-0.046,0.086-0.067,0.132
		c0.745-1.611,1.656-3.144,2.709-4.569c0.071-0.098,0.142-0.191,0.215-0.289c0.04-0.053,0.082-0.107,0.124-0.159
		c0.12-0.159,0.242-0.314,0.367-0.47c1.056-1.304,2.237-2.509,3.523-3.592c0.768-0.593,1.552-1.123,2.344-1.6
		c0.114-0.067,0.228-0.134,0.342-0.201c5.007-2.881,10.302-3.452,13.826-1.99c-1.679-0.806-3.458-1.535-5.304-1.788
		c-2.208-0.491-4.48-0.689-6.738-0.586c-2.186,0.101-4.356,0.482-6.445,1.126c-2.063,0.638-4.046,1.529-5.895,2.64
		c-1.844,1.108-3.555,2.433-5.088,3.943c-1.535,1.511-2.892,3.207-4.022,5.041c-1.145,1.855-2.057,3.854-2.702,5.937
		c-0.664,2.148-1.042,4.382-1.123,6.628c-0.081,2.219,0.124,4.45,0.615,6.616c0.47,2.072,1.201,4.08,2.168,5.973
		c0.947,1.858,2.121,3.598,3.479,5.179c1.349,1.571,2.879,2.987,4.55,4.212c1.67,1.227,3.478,2.261,5.381,3.079
		c1.911,0.817,3.92,1.419,5.971,1.77c2.084,0.357,4.211,0.461,6.32,0.296c2.189-0.171,4.354-0.625,6.43-1.349
		c0.121-0.043,0.243-0.085,0.361-0.128c0,0.412,0,0.827,0,1.239c0,0.006,0,0.015,0,0.024h16.75V27.817
		c0.157-1.925,0.664-3.82,1.516-5.557c0.806-1.636,1.904-3.119,3.229-4.373c1.3-1.236,2.808-2.25,4.438-3
		c1.629-0.751,3.375-1.242,5.157-1.44c1.791-0.202,3.616-0.104,5.374,0.305c1.822,0.425,3.556,1.188,5.1,2.24
		c1.822,1.239,3.369,2.881,4.685,4.639c1.407,1.874,2.539,3.949,3.372,6.141c0.528,1.395,0.938,2.835,1.221,4.3
		c0.159,0.82,0.281,1.647,0.36,2.48c0.226,2.323,0.141,4.676-0.256,6.974c-0.397,2.319-1.114,4.587-2.137,6.708
		c-0.244,0.503-0.507,1.001-0.781,1.489c-0.019-0.019-0.03-0.034-0.049-0.049c-6.58,11.456-23.486,11.936-30.715,0.894
		c-0.002,0-0.003,0-0.005,0c0.563,0.919,1.185,1.798,1.862,2.637c0.659,0.821,1.373,1.603,2.136,2.335
		c1.523,1.462,3.232,2.731,5.066,3.775c1.818,1.031,3.76,1.84,5.768,2.414c2.002,0.57,4.077,0.906,6.158,0.994
		c2.088,0.086,4.188-0.073,6.238-0.488c2.081-0.421,4.107-1.102,6.019-2.029c1.971-0.955,3.812-2.176,5.465-3.61
		c1.621-1.403,3.056-3.018,4.264-4.788c1.175-1.721,2.134-3.592,2.856-5.548c0.711-1.938,1.193-3.958,1.435-6.009
		C102.226,37.205,102.229,35.132,101.994,33.084z"/>
</g>
</svg>
