<?xml version="1.0" encoding="utf-8"?>
<!-- Generator: Adobe Illustrator 16.0.0, SVG Export Plug-In . SVG Version: 6.00 Build 0)  -->
<!DOCTYPE svg PUBLIC "-//W3C//DTD SVG 1.1//EN" "http://www.w3.org/Graphics/SVG/1.1/DTD/svg11.dtd">
<svg version="1.1" id="Layer_1" xmlns="http://www.w3.org/2000/svg" xmlns:xlink="http://www.w3.org/1999/xlink" x="0px" y="0px"
	 width="105px" height="105px" viewBox="0 0 105 105" enable-background="new 0 0 105 105" xml:space="preserve">
<path d="M45.61,40.606c0.007,0.004,0.014,0.007,0.021,0.01C45.624,40.613,45.617,40.61,45.61,40.606z"/>
<g>
	<path fill="none" d="M19.131,25.96c0.07-0.098,0.142-0.192,0.214-0.29C19.273,25.768,19.202,25.862,19.131,25.96z"/>
	<path fill="none" d="M19.469,25.512c0.121-0.156,0.243-0.314,0.368-0.467C19.711,25.197,19.589,25.353,19.469,25.512z"/>
	<path fill="none" d="M15.561,50.423l0.001,0.003L15.561,50.423z"/>
	<path fill="#666766" d="M15.563,50.426C15.57,50.451,15.57,50.451,15.563,50.426L15.563,50.426z"/>
	<path fill="#666766" d="M19.345,25.67c0.041-0.052,0.082-0.107,0.124-0.159C19.427,25.563,19.386,25.618,19.345,25.67z"/>
	<path fill="#9E9E9E" d="M39.925,17.681c-0.017-0.009-0.035-0.015-0.052-0.021c-3.526-1.462-8.82-0.891-13.826,1.99
		c-0.91,0.525-1.808,1.123-2.686,1.801c-1.288,1.083-2.467,2.289-3.523,3.592c-0.001,0-0.001,0.003-0.001,0.003
		c-0.125,0.153-0.247,0.312-0.368,0.467c-0.042,0.052-0.083,0.106-0.124,0.159c-0.072,0.098-0.144,0.192-0.214,0.29
		c-0.032,0.043-0.065,0.085-0.098,0.131c-0.981,1.349-1.834,2.792-2.543,4.306c4.597-9.061,20.422-14.575,29.482-8.927
		C43.476,19.359,40.326,17.833,39.925,17.681z"/>
	<path fill="#666766" d="M19.836,25.044c0,0,0-0.003,0.001-0.003C19.836,25.042,19.836,25.044,19.836,25.044z"/>
	<path fill="#666766" d="M19.131,25.96c-1.054,1.425-1.965,2.958-2.708,4.569c0.021-0.046,0.044-0.089,0.067-0.131
		c0.709-1.514,1.563-2.957,2.543-4.306C19.066,26.045,19.1,26.003,19.131,25.96z"/>
	<path fill="none" d="M93.638,21.483c-0.012-0.015-0.027-0.024-0.042-0.037c0.012,0.009,0.027,0.021,0.039,0.034
		C93.638,21.48,93.638,21.483,93.638,21.483z"/>
	<path fill="#9E9E9E" d="M85.807,53.555c0.019,0.015,0.034,0.03,0.049,0.049c0.278-0.488,0.537-0.986,0.781-1.489
		c1.022-2.121,1.74-4.389,2.14-6.708c0.394-2.298,0.479-4.651,0.254-6.974c-0.08-0.833-0.202-1.66-0.36-2.481
		c-0.421,0.946-0.889,1.871-1.397,2.768c-0.501,0.876-1.044,1.727-1.621,2.548c-0.382,0.531-0.778,1.056-1.181,1.568
		c-0.317,0.397-0.642,0.788-0.977,1.166c-1.209,1.373-2.533,2.637-3.962,3.784c-4.736,3.806-10.589,6.278-16.986,6.857
		c-0.955,0.086-1.919,0.132-2.896,0.132c-1.548,0-3.067-0.113-4.557-0.327C62.32,65.49,79.228,65.011,85.807,53.555z"/>
	<path fill="#666766" d="M93.635,21.48c0-0.003-0.003-0.003-0.003-0.003c0.019,0.015,0.037,0.03,0.062,0.049
		C93.675,21.511,93.653,21.495,93.635,21.48z"/>
	<path fill="#666766" d="M93.596,21.446c-0.306-0.259-0.227-0.192,0.036,0.031c0,0,0.003,0,0.003,0.003
		C93.623,21.468,93.607,21.456,93.596,21.446z"/>
	<path fill="#666766" d="M102.326,37.966c-0.237-2.051-0.717-4.077-1.431-6.018c-0.724-1.968-1.691-3.845-2.878-5.573
		c-0.846-1.229-1.801-2.38-2.851-3.436c-1.065-1.068-2.219-2.039-3.445-2.912c-1.392-0.986-2.894-1.819-4.456-2.5
		c-0.54-0.235-1.086-0.455-1.642-0.656c-0.849-0.309-1.703-0.583-2.566-0.836c-0.458-0.131-0.919-0.253-1.383-0.375
		c-0.055-0.015-0.109-0.027-0.165-0.042c-2.483-0.626-5.022-1.035-7.577-1.249c-2.591-0.22-5.203-0.235-7.798-0.04
		c-2.548,0.192-5.084,0.586-7.565,1.221c-2.34,0.598-4.629,1.407-6.793,2.478c0.017,0,0.037,0.003,0.054,0
		c-2.133,1.09-4.108,2.484-5.854,4.126c-1.726,1.624-3.227,3.485-4.453,5.515c-1.225,2.03-2.174,4.224-2.808,6.51
		c-0.609,2.197-0.923,4.471-0.923,6.75c0,0.4,0,0.796,0,1.196c0,0.989,0,1.975,0,2.963c0,1.385,0,2.768,0,4.15
		c0,1.587,0,3.174,0,4.761c0,1.593,0,3.189,0,4.782c0,1.349,0,2.698,0,4.047c-0.293,0.131-3.866,0.562-5.362,0.51
		c-1.456-0.052-2.917-0.363-4.298-0.815c-1.292-0.424-2.551-0.971-3.754-1.608c-1.164-0.616-2.278-1.33-3.297-2.166
		c-1.016-0.83-1.937-1.782-2.699-2.851c0-0.003-0.001-0.003-0.001-0.006c-2.966-4.236-4.433-9.434-4.393-14.585
		c0.021-2.826,0.49-5.646,1.411-8.319c0.304-0.882,0.656-1.749,1.053-2.591c-0.021,0.042-0.046,0.085-0.067,0.131
		c0.745-1.611,1.656-3.144,2.708-4.569c0.072-0.098,0.142-0.192,0.215-0.29c0.04-0.052,0.082-0.107,0.124-0.159
		c0.121-0.159,0.243-0.314,0.368-0.47c1.056-1.303,2.237-2.509,3.523-3.592c0.768-0.592,1.552-1.123,2.344-1.599
		c0.114-0.067,0.227-0.134,0.342-0.202c5.006-2.881,10.301-3.452,13.826-1.99c-1.679-0.806-3.458-1.535-5.304-1.788
		c-2.208-0.492-4.48-0.69-6.738-0.586c-2.185,0.101-4.356,0.482-6.445,1.126c-2.063,0.638-4.045,1.529-5.895,2.64
		c-1.843,1.108-3.554,2.432-5.087,3.943c-1.535,1.511-2.892,3.208-4.022,5.042c-1.145,1.855-2.057,3.854-2.702,5.936
		C2.977,36.12,2.598,38.354,2.518,40.6c-0.081,2.219,0.124,4.45,0.615,6.616c0.47,2.072,1.201,4.08,2.168,5.973
		c0.947,1.858,2.121,3.598,3.479,5.179c1.349,1.571,2.879,2.987,4.55,4.212c1.669,1.227,3.478,2.261,5.38,3.079
		c1.912,0.817,3.92,1.419,5.971,1.77c2.084,0.357,4.211,0.461,6.32,0.296c2.189-0.171,4.355-0.625,6.43-1.349
		c0.121-0.043,0.243-0.085,0.361-0.128c0,0.412,0,0.827,0,1.239c0,0.006,0,0.015,0,0.024h16.75V32.698
		c0.157-1.925,0.664-3.821,1.516-5.557c0.806-1.636,1.904-3.119,3.229-4.373c1.3-1.236,2.808-2.25,4.438-3
		c1.629-0.751,3.375-1.242,5.157-1.44c1.791-0.202,3.616-0.104,5.374,0.305c1.822,0.424,3.556,1.187,5.1,2.24
		c1.822,1.239,3.369,2.881,4.685,4.639c1.407,1.874,2.539,3.949,3.372,6.14c0.528,1.395,0.938,2.835,1.221,4.3
		c0.159,0.821,0.281,1.648,0.36,2.481c0.226,2.323,0.141,4.676-0.256,6.974c-0.397,2.319-1.114,4.587-2.137,6.708
		c-0.244,0.503-0.507,1.001-0.781,1.489c-0.019-0.019-0.03-0.034-0.049-0.049c-6.58,11.456-23.486,11.936-30.715,0.894
		c-0.002,0-0.003,0-0.005,0c0.563,0.919,1.185,1.798,1.862,2.637c0.659,0.821,1.373,1.603,2.136,2.335
		c1.523,1.462,3.232,2.731,5.066,3.775c1.818,1.031,3.76,1.84,5.768,2.414c2.002,0.57,4.077,0.906,6.158,0.994
		c2.088,0.086,4.188-0.073,6.238-0.488c2.081-0.421,4.107-1.102,6.019-2.029c1.971-0.955,3.812-2.176,5.465-3.61
		c1.621-1.403,3.056-3.018,4.264-4.788c1.175-1.721,2.134-3.592,2.856-5.548c0.711-1.938,1.193-3.958,1.435-6.009
		C102.559,42.086,102.562,40.014,102.326,37.966z"/>
	<path fill="#666766" d="M13.208,76.129c-0.701-0.439-1.787-0.659-3.256-0.659H8.389h-1.63v12.173h1.63v-4.91h1.875
		c1.392,0,2.446-0.262,3.16-0.79c0.92-0.678,1.38-1.617,1.38-2.817C14.804,77.798,14.273,76.797,13.208,76.129z M11.23,81.21H8.389
		v-4.218h2.841c1.166,0,2.107,0.946,2.107,2.109C13.337,80.267,12.396,81.21,11.23,81.21z"/>
	<path fill="#666766" d="M23.892,82.556c-0.05-1.172-0.368-2.084-0.938-2.737c-0.802-0.922-1.826-1.383-3.076-1.383
		c-0.572,0-1.097,0.125-1.581,0.379c-0.292,0.152-0.537,0.339-0.742,0.555V75.47h-0.412h-1.214v12.173h1.626v-5.261
		c0,0,0-2.365,2.339-2.384c2.235-0.021,2.37,2.176,2.37,2.484c0,0.027,0-0.024,0,0v0.073v5.087h1.628V82.9V82.556L23.892,82.556z"/>
	<path fill="#666766" d="M56.76,82.556c-0.049-1.172-0.354-2.084-0.928-2.737c-0.758-0.873-1.718-1.334-2.879-1.38
		c-0.054,0-0.108-0.003-0.167-0.003c-0.003,0-0.008,0-0.014,0c-0.004,0-0.014,0-0.015,0c-0.192,0-0.374,0.013-0.553,0.04
		c-0.376,0.058-0.743,0.161-1.095,0.32c-0.571,0.241-1.022,0.577-1.348,1.004c-0.047,0.092-0.087,0.165-0.124,0.229
		c-0.053-0.073-0.107-0.144-0.163-0.211c-0.8-0.922-1.828-1.383-3.078-1.383c-0.026,0-0.051,0.003-0.075,0.003
		c-0.032,0-0.063-0.003-0.096-0.003c-0.96,0-1.677,0.266-2.152,0.8v-0.65h-1.626v0.046v9.012h1.626v-5.261c0,0,0-2.365,2.339-2.384
		c2.238-0.021,2.371,2.176,2.371,2.484c0,0.027,0.001,0.052,0.001,0.073h-0.001v5.087h0.019h0.101h1.509h0.017v-5.261
		c0,0,0-2.365,2.339-2.384c2.239-0.021,2.373,2.176,2.373,2.484c0,0.027,0,0.052,0,0.073l0,0v5.087h1.63v-5.087H56.76z"/>
	<path fill="#666766" d="M77.073,81.384c-0.195-0.507-0.439-0.906-0.727-1.202c-1.133-1.166-2.356-1.746-3.668-1.746
		c-0.702,0-1.367,0.144-1.999,0.428c-0.461,0.213-0.84,0.473-1.133,0.778v-1.011h-0.476h-1.154v12.177h1.63v-4.199
		c0.257,0.302,0.586,0.559,0.995,0.772c0.604,0.32,1.267,0.476,1.983,0.476c1.331,0,2.481-0.448,3.442-1.349
		c0.965-0.903,1.447-2.008,1.447-3.326C77.415,82.564,77.302,81.967,77.073,81.384z M72.742,86.196
		c-1.666,0-3.018-1.352-3.018-3.021c0-1.669,1.352-3.021,3.018-3.021c1.67,0,3.021,1.352,3.021,3.021
		C75.764,84.845,74.412,86.196,72.742,86.196z"/>
	<rect x="78.538" y="75.47" fill="#666766" width="1.629" height="12.173"/>
	<path fill="#666766" d="M40.827,78.552c-0.371-0.067-0.784-0.104-1.253-0.104c-0.084,0-0.167,0.003-0.251,0.006
		c-0.644,0.027-1.271,0.113-1.857,0.399c-0.229,0.11-0.457,0.244-0.667,0.391v-0.646H35.17v4.535v4.522h0.006h1.622v-4.696
		c0-0.843,0.292-1.557,0.765-2.079c0.546-0.606,1.339-0.958,2.215-0.961c0,0,0.003,0,0.006,0c0.241,0.006,0.485,0.037,0.72,0.101
		c0.108,0.021,0.215,0.049,0.322,0.083c0.142,0.042,0.282,0.098,0.414,0.164v-1.623C41.109,78.609,40.972,78.579,40.827,78.552z"/>
	<path fill="#666766" d="M87.785,78.649v5.258c0,0,0,2.368-2.338,2.387c-2.234,0.021-2.375-2.512-2.375-2.558
		c0-0.049,0.007-5.087,0.007-5.087h-1.63v5.087c0.052,1.172,0.366,2.088,0.939,2.738c0.8,0.924,1.825,1.382,3.076,1.382
		c0.571,0,1.099-0.125,1.581-0.378c0.287-0.153,0.537-0.339,0.739-0.556v0.732h1.629v-9.006H87.785z"/>
	<path fill="#666766" d="M62.171,78.476c-1.486,0-2.884,0.738-3.748,1.804h2.348c0.494-0.29,1.409-0.336,1.409-0.336
		c1.66,0.013,2.521,0.876,2.832,2.078c-5.529-1.142-6.891,0.873-7.089,2.313c-0.021,0.138-0.033,0.271-0.027,0.402
		c0,1.545,1.892,3.101,4.199,3.101c1.172,0.019,2.243-0.424,3.067-1.123v0.94h1.639v-4.471
		C66.801,80.151,65.47,78.476,62.171,78.476z M62.235,86.315c-1.264,0.04-2.075-0.613-2.381-1.11
		c-0.763-1.255,0.513-2.146,2.259-2.319c1.462-0.15,3.003,0.213,3.003,0.213S65.165,86.224,62.235,86.315z"/>
	<path fill="#666766" d="M29.292,78.476c-1.486,0-2.886,0.738-3.748,1.804h2.345c0.494-0.29,1.412-0.336,1.412-0.336
		c1.66,0.013,2.519,0.876,2.832,2.078c-5.528-1.142-6.89,0.873-7.089,2.313c-0.024,0.138-0.032,0.271-0.029,0.402
		c0.001,1.545,1.892,3.101,4.203,3.101c1.17,0.019,2.24-0.424,3.064-1.123v0.94h1.64v-4.471
		C33.922,80.151,32.591,78.476,29.292,78.476z M29.355,86.315c-1.264,0.04-2.077-0.613-2.38-1.11
		c-0.763-1.255,0.513-2.146,2.257-2.319c1.465-0.15,3.007,0.213,3.007,0.213S32.283,86.224,29.355,86.315z"/>
	<path fill="#666766" d="M94.807,82.238c-1.535-0.396-2.707-0.406-2.651-1.395c0.024-0.445,0.894-1.025,2.325-0.892
		c1.477,0.224,1.749,0.886,1.837,1.478l0.396-0.043l0,0l0,0l1.285-0.146c0-0.003-0.003-0.006-0.003-0.006l0.073-0.009
		c-0.678-3.019-3.748-2.823-3.748-2.823c-0.729,0.006-1.357,0.095-1.886,0.247c-0.769,0.201-1.373,0.559-1.703,1.117
		c-0.161,0.256-0.253,0.54-0.269,0.833l0,0c-0.006,0.095-0.012,0.192-0.012,0.293c0,2.2,3.039,2.726,4.4,3.043
		c1.489,0.387,1.819,0.891,1.739,1.437c-0.091,0.639-1.056,1.047-2.282,0.903c-2.063-0.24-1.91-1.782-1.91-1.782l-1.819-0.015
		c-0.134,1.779,1.495,3.378,3.836,3.378c3.396,0,3.778-1.898,3.778-2.624C98.194,83.337,96.348,82.635,94.807,82.238z"/>
</g>
</svg>
