<?xml version="1.0" encoding="UTF-8" ?>
<!DOCTYPE svg PUBLIC "-//W3C//DTD SVG 1.1//EN" "http://www.w3.org/Graphics/SVG/1.1/DTD/svg11.dtd">
<svg width="1195pt" height="837pt" viewBox="0 0 1195 837" version="1.1" xmlns="http://www.w3.org/2000/svg">
<path fill="#fefbfb" d=" M 0.00 0.00 L 1195.00 0.00 L 1195.00 837.00 L 0.00 837.00 L 0.00 0.00 Z" />
<path fill="#ea1011" d=" M 1007.73 91.73 C 1009.69 91.49 1011.67 91.32 1013.66 91.18 C 1014.48 93.11 1015.28 95.05 1016.01 97.03 C 1013.06 95.57 1010.21 93.90 1007.73 91.73 Z" />
<path fill="#ea1011" d=" M 1015.87 90.87 C 1040.10 89.60 1064.54 99.21 1081.52 116.50 C 1088.17 123.18 1093.53 131.11 1097.68 139.56 C 1102.89 152.52 1107.02 165.89 1111.34 179.17 C 1110.36 182.81 1109.65 186.54 1109.04 190.25 C 1106.04 193.47 1104.41 198.48 1099.60 199.39 C 1104.45 200.34 1109.13 197.13 1111.29 192.92 C 1112.08 190.56 1112.36 188.06 1113.01 185.65 C 1117.11 194.77 1119.51 204.55 1122.85 213.97 C 1131.80 241.37 1141.00 268.70 1149.86 296.14 C 1151.30 300.73 1153.56 305.19 1153.72 310.08 C 1149.08 309.78 1145.78 313.14 1142.70 316.08 C 1142.65 318.09 1142.63 320.11 1142.60 322.14 C 1144.16 325.32 1146.11 329.06 1150.07 329.53 C 1153.61 330.61 1157.18 329.34 1160.02 327.17 C 1161.73 332.38 1164.03 337.63 1163.48 343.26 C 1160.75 345.39 1160.46 348.86 1160.65 352.08 C 1163.33 351.59 1164.34 349.04 1165.60 346.98 C 1165.58 347.55 1165.54 348.71 1165.53 349.29 C 1164.76 350.48 1163.40 351.47 1163.37 353.00 C 1164.32 354.54 1165.52 355.95 1166.33 357.60 C 1166.88 360.30 1166.54 363.10 1166.55 365.85 C 1160.55 363.16 1153.32 360.99 1147.27 364.75 C 1147.43 360.88 1146.93 357.01 1146.94 353.15 C 1148.83 349.92 1153.40 348.08 1152.74 343.71 C 1151.82 343.61 1149.98 343.40 1149.06 343.30 C 1148.02 344.62 1146.98 345.94 1145.96 347.26 C 1144.42 340.70 1141.61 334.52 1140.05 327.98 C 1139.49 325.79 1140.33 323.21 1138.77 321.37 C 1136.50 318.74 1135.58 315.39 1134.64 312.14 C 1128.13 292.18 1121.35 272.31 1115.01 252.30 C 1114.16 250.41 1115.23 248.60 1116.05 246.93 C 1116.24 244.10 1117.94 241.86 1119.88 239.93 C 1119.40 234.63 1118.16 228.80 1113.51 225.56 C 1111.46 223.26 1108.31 223.43 1105.51 223.33 C 1101.21 211.25 1097.44 199.00 1093.36 186.84 C 1092.07 181.81 1089.54 177.14 1088.88 171.94 C 1088.59 169.81 1088.23 167.65 1086.94 165.88 C 1084.68 160.69 1082.91 155.31 1080.98 150.00 C 1075.60 137.69 1066.33 127.15 1054.92 120.08 C 1049.38 117.05 1043.75 113.83 1037.41 112.87 C 1037.44 112.32 1037.50 111.23 1037.53 110.69 C 1034.57 108.83 1031.59 107.01 1028.58 105.24 C 1025.54 102.87 1021.95 101.34 1018.93 98.96 C 1017.00 96.71 1016.37 93.70 1015.87 90.87 Z" />
<path fill="#ea1011" d=" M 851.69 141.90 C 892.86 128.40 933.97 114.63 975.22 101.38 C 979.52 106.99 984.48 112.03 989.21 117.28 C 944.79 131.54 900.63 146.59 856.21 160.83 C 852.23 155.31 847.96 150.00 843.87 144.56 C 846.24 143.71 848.63 142.88 851.07 142.19 L 851.69 141.90 Z" />
<path fill="#ea1011" d=" M 1009.41 102.93 C 1013.61 104.36 1017.60 106.36 1021.87 107.58 C 1024.80 108.54 1027.95 108.89 1030.57 110.69 C 1024.66 110.36 1018.75 110.04 1012.84 110.57 C 1011.79 107.98 1010.65 105.43 1009.41 102.93 Z" />
<path fill="#fefbfb" d=" M 910.63 137.53 C 910.82 135.89 909.72 133.47 911.81 132.71 C 912.76 132.67 914.67 132.59 915.63 132.54 C 915.60 134.18 915.56 135.82 915.51 137.46 C 913.87 137.52 912.25 137.55 910.63 137.53 Z" />
<path fill="#ea1011" d=" M 983.85 150.12 C 995.95 147.10 1008.26 143.04 1020.91 144.65 C 1038.28 147.04 1051.40 161.65 1057.22 177.47 C 1067.89 204.22 1075.87 231.94 1085.32 259.13 C 1089.10 271.03 1092.89 282.93 1097.07 294.70 C 1100.59 306.39 1104.71 317.90 1107.94 329.69 C 1111.77 342.99 1115.31 357.89 1109.37 371.14 C 1105.23 377.95 1099.43 383.70 1092.21 387.17 C 1077.39 394.38 1061.34 398.48 1045.83 403.87 C 1041.84 405.34 1037.74 406.49 1033.68 407.74 C 1029.83 399.23 1024.94 391.15 1018.87 384.04 C 1018.26 383.81 1017.03 383.34 1016.42 383.11 C 1017.59 393.11 1024.72 400.98 1029.85 409.26 C 1027.09 410.45 1024.03 410.48 1021.18 411.08 C 1017.06 413.80 1012.17 414.77 1007.61 416.46 C 1004.53 409.20 1002.86 401.44 1000.03 394.09 C 993.80 375.41 987.88 356.62 981.49 338.00 C 979.97 333.57 979.77 328.76 977.67 324.53 C 975.56 320.35 974.20 315.87 972.85 311.40 C 968.76 299.25 964.92 287.02 960.73 274.90 C 961.61 272.57 961.95 270.10 961.54 267.63 C 960.36 267.52 959.20 267.42 958.05 267.32 C 956.09 259.82 953.48 252.50 950.92 245.19 C 953.26 246.74 953.83 243.40 955.42 242.44 C 957.81 240.86 959.59 238.63 961.33 236.39 C 964.95 232.64 968.50 228.74 972.74 225.66 C 974.98 223.18 976.90 220.32 979.99 218.78 C 979.58 217.86 978.76 216.02 978.36 215.10 C 978.49 216.12 978.76 218.18 978.89 219.20 C 976.80 220.63 975.02 222.44 973.65 224.56 C 973.08 224.34 971.93 223.88 971.36 223.65 L 973.40 224.90 C 968.58 228.19 964.94 232.78 960.59 236.60 C 959.39 237.36 958.41 238.39 957.53 239.49 C 955.40 241.37 953.58 243.60 951.12 245.07 C 944.55 226.08 938.40 206.93 932.11 187.84 C 930.40 181.32 927.27 175.22 926.12 168.55 C 945.42 162.58 964.40 155.60 983.85 150.12 Z" />
<path fill="#ea1011" d=" M 819.76 152.25 C 827.19 150.17 834.41 147.33 841.83 145.28 C 846.05 150.11 849.55 155.52 853.80 160.33 C 853.72 160.76 853.56 161.63 853.48 162.06 C 846.24 163.72 839.49 167.12 832.19 168.45 C 829.65 165.75 827.54 162.69 825.14 159.88 C 823.28 157.38 820.82 155.25 819.76 152.25 Z" />
<path fill="#ea1011" d=" M 738.91 178.89 C 764.07 170.89 789.05 162.34 814.21 154.33 C 818.72 159.71 823.61 164.74 828.05 170.18 C 805.05 177.72 782.13 185.52 759.04 192.76 C 757.31 190.03 753.87 189.74 751.19 188.45 C 746.41 186.38 740.71 184.32 738.91 178.89 Z" />
<path fill="#fefbfb" d=" M 979.27 158.32 C 980.30 155.48 983.75 156.10 986.13 156.36 C 987.66 157.51 988.46 159.35 989.58 160.89 C 988.78 162.43 987.99 163.98 987.22 165.54 C 985.42 165.92 983.61 166.39 981.78 166.38 C 978.77 165.10 977.30 161.11 979.27 158.32 Z" />
<path fill="#fefbfb" d=" M 797.42 165.60 C 800.94 164.18 802.95 168.15 803.63 170.94 C 804.37 173.90 802.34 176.63 799.82 177.93 C 797.14 178.01 795.00 175.57 795.16 172.94 C 795.03 170.43 794.82 166.91 797.42 165.60 Z" />
<path fill="#ea1011" d=" M 900.31 177.35 C 902.72 176.29 905.24 175.52 907.61 174.35 C 911.35 182.97 913.75 192.12 916.78 201.01 C 919.74 208.61 921.56 216.59 924.57 224.17 C 913.44 227.79 902.47 231.96 891.15 234.97 C 891.66 239.61 893.90 243.80 895.14 248.26 C 897.76 257.12 901.06 265.75 903.73 274.60 C 901.31 274.01 898.58 271.42 896.18 273.48 C 897.57 277.70 900.73 281.11 903.24 284.72 C 906.16 287.28 908.57 290.35 909.97 294.01 C 911.23 294.69 912.50 295.36 913.78 296.03 C 913.60 290.47 910.06 286.22 907.77 281.45 C 908.55 281.38 910.09 281.24 910.87 281.16 C 911.50 282.47 912.14 283.78 912.75 285.10 C 917.64 291.35 921.29 299.59 928.86 302.97 C 928.64 294.23 923.24 286.75 918.72 279.65 C 918.62 279.24 918.41 278.43 918.30 278.02 C 924.94 276.23 931.34 273.60 938.05 272.05 C 942.71 287.80 948.45 303.31 953.16 319.01 C 948.49 320.83 943.68 322.26 938.90 323.76 C 933.31 325.52 927.87 327.80 922.12 329.04 C 922.82 334.23 925.32 338.96 926.66 344.01 C 930.98 357.25 935.39 370.46 939.70 383.70 C 952.03 379.67 964.33 375.55 976.67 371.56 C 981.20 384.70 985.29 398.03 989.84 411.18 C 990.91 414.56 992.10 417.90 992.91 421.36 C 981.27 425.08 969.68 428.97 958.05 432.71 C 951.71 434.89 945.39 437.22 938.85 438.69 C 935.57 432.92 930.70 428.15 925.50 424.12 C 925.04 430.61 929.81 435.66 932.42 441.19 C 923.84 443.92 915.40 447.10 906.70 449.40 C 906.27 449.37 905.40 449.31 904.96 449.28 C 899.85 432.00 893.85 415.00 888.29 397.86 C 888.13 396.74 886.77 395.02 888.20 394.21 C 888.55 394.07 889.25 393.81 889.60 393.67 C 896.14 398.16 903.48 401.40 909.67 406.40 C 910.61 407.19 911.69 407.77 912.96 407.86 C 914.39 406.62 914.55 404.76 914.57 402.99 C 904.31 402.25 897.17 393.14 887.00 392.07 L 886.21 391.63 C 878.57 368.02 870.61 344.52 863.07 320.88 C 865.86 320.06 867.79 317.86 868.99 315.30 C 866.01 314.87 864.28 317.40 862.61 319.37 C 853.72 293.76 845.71 267.84 836.96 242.17 C 834.55 233.52 830.92 225.24 828.92 216.48 C 831.86 216.50 834.64 217.46 837.16 218.94 C 839.27 220.33 841.75 218.99 844.03 218.83 C 845.90 218.71 847.10 221.25 848.99 220.54 C 850.78 218.83 851.89 215.64 854.89 215.95 C 866.58 215.98 878.28 215.57 889.98 215.48 C 892.78 215.13 894.87 217.21 896.95 218.73 C 900.75 216.42 904.44 213.20 904.17 208.31 C 900.91 208.14 898.13 210.03 895.01 210.39 C 877.98 210.14 860.88 213.50 843.92 210.71 C 838.28 211.38 832.73 212.93 827.01 212.67 C 826.13 209.11 824.75 205.69 824.23 202.05 C 833.00 199.40 841.75 196.59 850.38 193.48 C 852.64 195.53 854.80 197.69 857.03 199.78 C 855.44 197.61 853.83 195.45 852.32 193.22 C 854.20 192.55 856.53 191.83 856.50 189.40 C 856.96 190.13 857.45 190.86 857.97 191.58 C 858.56 191.26 859.73 190.61 860.32 190.29 C 860.73 191.90 859.93 194.39 861.96 195.08 C 864.69 196.19 867.57 196.86 870.39 197.69 C 873.17 195.29 873.45 191.46 873.44 188.03 C 873.07 187.08 872.71 186.14 872.37 185.19 C 877.66 190.68 881.90 197.06 886.76 202.92 C 884.66 198.28 881.89 193.96 878.57 190.11 C 877.53 188.63 875.95 187.25 876.05 185.29 C 880.72 183.61 885.44 182.06 890.15 180.48 C 893.03 183.72 898.10 184.89 901.43 181.54 C 901.12 180.13 900.59 178.77 900.31 177.35 Z" />
<path fill="#fefbfb" d=" M 1001.62 178.63 C 1002.53 178.90 1003.47 179.16 1004.40 179.43 C 1004.43 180.01 1004.47 181.17 1004.50 181.75 C 1003.49 181.67 1002.50 181.58 1001.52 181.50 C 1001.54 180.54 1001.57 179.59 1001.62 178.63 Z" />
<path fill="#fefbfb" d=" M 1027.38 177.63 C 1028.92 184.21 1031.51 190.47 1033.18 197.01 C 1033.74 198.92 1033.70 200.92 1033.47 202.88 C 1031.14 199.88 1029.17 196.62 1027.65 193.14 C 1027.60 187.97 1027.06 182.80 1027.38 177.63 Z" />
<path fill="#ea1011" d=" M 729.11 182.21 C 730.85 181.76 732.82 180.39 734.56 181.60 C 740.37 185.27 745.49 189.91 751.19 193.76 C 751.25 194.20 751.36 195.08 751.42 195.52 C 745.16 197.35 739.05 199.69 732.80 201.49 C 730.91 200.17 729.21 198.61 727.41 197.20 C 727.33 199.26 727.35 201.33 727.43 203.40 C 724.97 204.08 722.53 204.84 720.10 205.60 C 720.98 199.71 719.50 193.91 718.46 188.15 C 718.15 188.13 717.52 188.08 717.21 188.05 C 715.32 192.15 715.68 197.00 715.12 201.44 C 714.00 201.74 712.90 202.06 711.81 202.38 C 712.49 202.44 713.85 202.55 714.53 202.61 C 714.87 204.17 715.18 205.75 715.46 207.34 C 711.22 208.64 706.95 209.85 702.83 211.50 C 701.58 210.32 700.48 208.93 698.96 208.09 C 697.29 208.39 695.72 209.05 694.06 209.34 C 687.02 209.75 680.02 211.33 672.96 210.38 C 669.54 209.79 666.29 211.19 663.00 211.80 C 657.91 213.02 652.74 211.64 647.64 211.33 C 647.53 210.52 647.43 209.71 647.34 208.91 C 661.67 204.90 675.61 199.53 689.87 195.24 C 698.16 191.93 707.03 190.17 715.16 186.45 C 715.85 186.45 717.23 186.44 717.93 186.44 C 721.40 184.41 725.41 183.70 729.11 182.21 Z" />
<path fill="#fefbfb" d=" M 990.69 194.79 C 995.89 191.61 1001.92 193.46 1007.58 193.41 C 1007.63 194.95 1007.16 196.65 1007.97 198.08 C 1013.40 209.48 1016.65 221.72 1020.76 233.62 C 1028.23 256.40 1035.77 279.16 1043.21 301.95 C 1044.38 306.56 1048.30 309.56 1051.12 313.15 C 1054.14 312.75 1056.21 314.68 1057.80 316.99 C 1057.03 317.83 1056.27 318.68 1055.52 319.53 C 1057.49 323.44 1058.61 327.73 1058.61 332.13 C 1056.00 329.98 1053.83 327.35 1051.16 325.29 C 1052.33 331.92 1054.85 338.29 1055.53 345.01 C 1056.53 351.67 1049.48 355.79 1043.92 357.05 C 1042.28 352.35 1041.04 347.47 1038.73 343.04 C 1037.98 335.17 1033.13 328.47 1032.03 320.73 C 1027.00 306.21 1022.51 291.51 1017.48 276.99 C 1015.96 271.87 1011.48 268.18 1010.41 262.88 C 1010.07 260.88 1011.48 258.93 1010.87 256.97 C 1009.21 251.27 1007.43 245.57 1005.01 240.15 C 1004.16 241.42 1003.38 242.83 1002.02 243.61 C 999.18 242.72 1000.31 239.11 1002.56 238.19 C 996.83 231.72 990.10 224.59 990.78 215.25 C 994.64 219.94 998.37 224.74 1001.68 229.85 C 998.67 217.96 993.72 206.66 990.69 194.79 Z" />
<path fill="#fefbfb" d=" M 896.51 195.57 C 898.23 195.24 899.95 194.88 901.69 194.56 C 899.71 197.41 897.56 200.23 894.62 202.16 C 894.57 200.63 894.55 199.11 894.56 197.59 C 895.20 196.91 895.85 196.24 896.51 195.57 Z" />
<path fill="#fefbfb" d=" M 875.98 201.56 C 880.24 200.92 883.94 203.38 887.06 205.94 C 886.58 208.49 883.55 207.36 881.84 207.35 C 879.18 206.36 876.74 204.40 875.98 201.56 Z" />
<path fill="#ea1011" d=" M 785.96 214.69 C 790.21 213.52 794.26 211.65 798.64 211.00 C 798.60 211.54 798.52 212.63 798.47 213.17 C 794.38 214.17 790.19 214.90 785.96 214.69 Z" />
<path fill="#ea1011" d=" M 671.07 217.52 C 672.07 216.24 673.26 214.84 675.03 214.82 C 681.13 214.57 687.24 214.59 693.35 214.45 C 685.58 217.10 677.76 219.59 670.06 222.41 C 668.44 222.35 666.28 223.05 665.35 221.20 C 662.00 221.19 658.65 221.22 655.31 221.27 C 655.89 220.79 656.47 220.31 657.06 219.83 C 661.72 219.02 666.44 218.53 671.07 217.52 Z" />
<path fill="#ea1011" d=" M 631.68 215.45 C 637.42 215.55 643.65 213.38 649.04 215.98 C 646.13 219.71 642.66 222.97 638.72 225.57 C 636.42 222.16 633.69 219.05 631.68 215.45 Z" />
<path fill="#ea1011" d=" M 778.67 218.69 C 788.00 218.87 797.34 218.83 806.58 217.36 C 815.00 242.77 823.33 268.20 831.73 293.62 C 834.56 294.80 832.64 297.80 833.80 299.94 C 838.09 312.98 842.20 326.08 846.80 339.02 C 847.23 340.24 847.41 341.53 847.57 342.83 C 846.11 344.41 844.90 346.19 843.57 347.87 C 839.77 344.62 836.82 340.38 833.29 336.81 C 824.92 327.50 816.40 318.34 807.55 309.49 C 804.90 306.37 801.18 304.19 799.24 300.49 C 799.02 300.43 798.56 300.30 798.34 300.24 C 800.63 303.98 803.64 307.21 806.37 310.64 C 819.32 326.71 832.43 342.63 845.33 358.74 C 849.79 363.95 853.77 369.57 858.46 374.59 C 858.49 375.33 858.54 376.08 858.60 376.83 C 855.46 374.81 852.38 372.65 848.95 371.16 C 845.79 369.71 842.32 369.20 839.10 367.91 C 838.61 367.28 838.17 366.62 837.79 365.93 L 837.08 367.90 C 835.64 365.91 833.36 365.20 831.26 364.29 C 831.72 365.21 832.19 366.12 832.68 367.05 C 837.87 367.77 842.11 371.02 846.47 373.65 C 850.74 376.26 855.52 377.82 860.15 379.64 C 867.94 404.01 876.08 428.28 884.13 452.58 C 884.55 454.05 884.64 455.60 884.80 457.13 C 875.21 459.62 866.04 463.49 856.45 465.91 C 854.04 461.42 851.16 457.21 847.96 453.25 C 847.28 453.26 845.91 453.28 845.22 453.30 C 845.36 458.72 848.58 463.23 850.09 468.27 C 847.06 469.43 843.99 470.61 840.73 470.89 C 827.57 448.90 814.19 427.07 800.86 405.19 C 800.26 404.07 799.68 402.97 799.10 401.87 C 792.13 390.66 785.04 379.53 778.32 368.17 C 778.92 370.12 779.49 372.09 780.09 374.05 C 782.94 382.15 785.27 390.43 788.25 398.49 C 792.19 411.72 797.34 424.58 800.79 437.94 C 801.16 438.97 801.54 440.00 801.91 441.04 C 802.20 442.07 802.47 443.11 802.75 444.16 C 803.00 444.65 803.50 445.63 803.75 446.11 C 805.54 450.86 807.41 455.68 807.95 460.77 C 804.34 460.51 802.50 457.21 800.30 454.85 C 798.31 452.35 795.80 450.33 792.98 448.85 C 791.62 448.76 790.28 448.67 788.95 448.59 C 788.30 448.85 786.99 449.37 786.34 449.63 C 786.40 450.09 786.52 451.02 786.58 451.49 C 791.16 459.76 801.32 461.41 809.68 463.53 C 811.45 469.09 813.60 474.55 814.70 480.30 C 813.70 480.34 812.70 480.39 811.72 480.44 C 806.29 476.22 800.07 471.80 792.77 473.23 C 794.35 478.45 799.06 481.64 804.02 483.24 C 794.72 486.68 785.24 489.60 775.83 492.69 C 775.03 492.98 773.43 493.58 772.63 493.87 C 770.77 488.26 769.10 482.59 767.24 476.98 C 765.40 472.49 764.11 467.80 762.84 463.13 C 764.16 464.24 765.65 465.16 767.49 464.75 C 768.92 463.02 768.38 460.68 768.54 458.64 C 766.97 457.86 765.42 457.09 763.88 456.31 C 762.92 457.13 762.00 457.97 761.07 458.80 C 759.48 453.79 757.85 448.79 756.25 443.78 C 755.33 441.58 754.65 439.28 754.21 436.94 C 749.24 422.66 744.42 408.33 739.83 393.92 C 737.28 385.63 733.74 377.57 732.16 369.02 C 736.62 371.94 741.82 374.46 743.92 379.73 C 747.05 380.11 747.87 376.63 747.85 374.21 C 741.50 372.65 735.63 369.48 730.57 365.39 C 727.34 356.33 724.34 347.17 721.38 338.01 C 720.33 334.40 718.46 330.98 718.23 327.19 C 718.63 326.92 719.43 326.39 719.83 326.13 L 719.72 324.61 C 719.05 324.57 717.70 324.50 717.02 324.47 C 713.58 315.09 710.83 305.48 707.50 296.07 C 709.59 294.86 711.30 293.19 710.83 290.57 C 709.11 290.43 707.41 290.31 705.71 290.21 C 703.94 284.77 701.99 279.38 700.21 273.95 C 697.36 264.52 693.75 255.33 691.26 245.80 C 696.19 244.45 701.06 242.87 705.84 241.07 C 705.62 242.63 705.16 244.19 705.28 245.79 C 707.00 249.73 713.50 249.89 715.40 245.99 C 716.61 243.30 714.68 240.82 713.18 238.77 C 719.81 236.89 726.12 233.87 732.88 232.47 C 734.92 233.20 735.61 236.10 737.41 237.45 C 734.87 237.80 732.38 238.42 730.10 239.58 C 732.12 243.32 735.67 246.36 740.11 246.48 C 743.11 246.20 744.27 249.20 745.63 251.27 C 754.17 265.07 763.07 278.64 771.67 292.41 C 780.24 305.39 788.16 318.82 796.93 331.66 C 794.64 322.06 790.91 312.89 788.04 303.45 C 789.06 303.43 791.10 303.39 792.12 303.37 C 790.73 302.76 789.18 302.68 787.71 302.56 C 784.34 291.42 780.14 280.53 776.97 269.32 C 778.74 270.52 780.48 271.82 782.69 272.18 C 779.03 267.58 774.44 263.38 772.84 257.54 C 769.30 246.13 765.20 234.90 761.91 223.42 C 764.23 225.66 766.65 227.92 769.78 229.02 C 769.71 226.23 767.96 224.06 766.41 221.92 C 766.69 221.57 767.25 220.86 767.53 220.51 C 770.39 220.25 773.27 220.30 776.14 220.43 C 776.98 219.85 777.82 219.27 778.67 218.69 Z" />
<path fill="#ea1011" d=" M 639.95 225.10 C 643.16 222.63 646.01 219.73 648.89 216.90 C 651.10 220.37 654.14 223.27 656.01 226.97 C 651.85 227.82 648.00 229.65 643.92 230.73 C 641.02 231.11 640.45 227.10 638.93 225.55 C 639.67 225.68 641.14 225.94 641.87 226.08 L 639.95 225.10 Z" />
<path fill="#ea1011" d=" M 587.24 228.89 C 597.08 225.88 606.66 222.00 616.71 219.64 L 616.46 221.39 C 619.09 221.64 621.69 222.10 624.31 222.50 C 626.87 225.72 630.32 227.99 633.97 229.81 C 635.07 230.95 636.20 232.07 637.40 233.13 C 631.22 234.33 625.54 237.16 619.51 238.84 C 610.95 241.38 602.72 244.99 593.96 246.83 C 591.78 244.32 589.28 241.84 585.97 240.97 C 580.97 239.23 575.67 240.22 570.55 240.67 C 568.82 242.24 567.06 243.77 565.21 245.19 C 561.13 245.68 558.02 248.59 554.56 250.52 C 547.99 254.82 540.69 258.67 536.14 265.31 C 529.00 268.70 521.48 271.07 513.99 273.58 C 509.22 267.76 503.20 263.24 497.55 258.34 C 503.41 256.57 509.23 254.66 515.01 252.63 C 517.51 251.24 518.94 254.05 520.45 255.50 C 523.46 259.02 528.20 261.59 528.59 266.70 C 529.28 266.66 530.65 266.57 531.33 266.52 C 531.81 265.18 533.71 263.37 531.67 262.35 C 527.60 258.92 524.15 254.88 520.51 251.02 C 542.67 243.39 565.02 236.36 587.24 228.89 Z" />
<path fill="#fefbfb" d=" M 873.35 228.83 C 874.07 228.77 874.79 228.71 875.53 228.66 C 882.86 234.89 888.66 242.72 893.56 250.95 C 885.02 245.42 880.30 236.01 873.35 228.83 Z" />
<path fill="#fefbfb" d=" M 594.86 239.88 C 593.15 238.15 591.22 234.85 594.52 233.69 C 595.43 234.07 596.34 234.46 597.26 234.84 C 597.25 235.84 597.26 236.84 597.27 237.84 C 596.46 238.52 595.65 239.20 594.86 239.88 Z" />
<path fill="#fefbfb" d=" M 973.25 239.97 C 972.75 237.28 973.85 234.77 976.00 233.17 C 978.45 233.63 980.89 234.23 983.34 234.78 C 984.39 237.43 984.72 240.26 984.48 243.10 C 982.79 244.18 981.16 246.05 978.95 245.36 C 976.40 244.57 972.96 243.23 973.25 239.97 Z" />
<path fill="#fefbfb" d=" M 869.26 232.38 C 873.15 235.35 874.36 240.55 875.66 245.05 C 873.99 244.48 872.38 243.87 870.75 243.26 C 869.62 239.74 868.99 236.08 869.26 232.38 Z" />
<path fill="#fefbfb" d=" M 1036.52 239.49 C 1039.38 239.18 1042.31 239.32 1044.94 240.66 C 1043.27 243.51 1039.97 243.91 1036.95 243.77 C 1036.84 242.70 1036.63 240.56 1036.52 239.49 Z" />
<path fill="#ea1011" d=" M 577.95 246.30 C 582.94 246.03 588.41 243.97 592.98 247.00 C 586.39 250.48 578.92 251.77 572.02 254.52 C 562.29 257.48 552.75 261.02 542.99 263.85 C 547.96 259.76 553.36 254.79 560.13 254.57 C 563.62 251.87 567.31 249.45 571.10 247.20 C 573.11 245.79 575.66 246.51 577.95 246.30 Z" />
<path fill="#fefbfb" d=" M 1044.81 246.80 C 1045.36 246.79 1046.45 246.77 1047.00 246.75 C 1049.04 248.96 1051.20 251.17 1052.50 253.92 C 1052.92 255.93 1052.82 258.00 1052.76 260.04 C 1049.18 258.43 1046.53 255.52 1044.65 252.15 C 1044.37 251.63 1043.81 250.59 1043.53 250.07 C 1043.95 248.98 1044.37 247.89 1044.81 246.80 Z" />
<path fill="#fefbfb" d=" M 1054.18 248.87 C 1055.61 248.27 1057.07 247.70 1058.55 247.18 C 1059.43 249.18 1059.78 251.33 1059.69 253.52 C 1057.92 253.26 1055.75 253.85 1054.53 252.21 C 1054.44 251.37 1054.26 249.70 1054.18 248.87 Z" />
<path fill="#fefbfb" d=" M 1032.54 250.65 C 1032.36 249.23 1034.81 249.28 1035.51 250.11 C 1035.70 251.56 1033.17 251.57 1032.54 250.65 Z" />
<path fill="#fefbfb" d=" M 720.25 252.97 C 722.62 250.90 724.94 253.86 726.36 255.63 C 730.49 260.15 720.40 267.33 717.76 261.48 C 716.00 258.44 717.99 255.06 720.25 252.97 Z" />
<path fill="#fefbfb" d=" M 780.21 256.05 C 782.01 256.30 783.75 256.85 785.42 257.61 C 786.79 261.34 787.15 265.33 786.69 269.28 C 783.52 265.45 781.63 260.77 780.21 256.05 Z" />
<path fill="#ea1011" d=" M 466.15 268.61 C 476.13 265.64 485.95 262.08 495.93 259.09 C 500.15 264.63 505.57 269.23 509.29 275.15 C 508.47 275.39 506.83 275.89 506.01 276.13 C 496.22 279.70 486.14 282.40 476.40 286.11 C 474.66 286.77 472.83 287.13 470.99 287.30 C 472.11 287.00 473.22 286.73 474.36 286.49 C 475.20 284.19 477.17 281.86 476.65 279.34 C 474.26 275.39 469.95 273.20 466.45 270.36 C 466.38 269.92 466.22 269.05 466.15 268.61 Z" />
<path fill="#fefbfb" d=" M 811.62 264.42 C 812.14 264.46 813.19 264.54 813.71 264.58 C 813.44 267.39 811.97 270.13 809.19 271.13 C 808.99 268.58 810.22 266.42 811.62 264.42 Z" />
<path fill="#ea1011" d=" M 636.13 266.36 C 640.73 265.19 645.51 265.30 650.22 265.47 C 655.10 271.78 659.12 278.79 664.81 284.44 C 665.86 278.12 661.82 273.18 658.77 268.20 C 668.45 272.62 675.47 280.97 680.99 289.82 C 686.27 298.98 690.29 308.84 693.59 318.88 C 695.71 326.48 698.89 333.84 699.76 341.75 C 696.73 339.25 692.98 338.00 689.53 336.26 C 685.35 334.26 681.52 331.62 677.31 329.68 C 676.85 329.65 675.92 329.61 675.45 329.59 C 678.54 333.74 682.14 337.70 686.89 339.99 C 691.65 342.30 696.53 344.36 701.19 346.90 C 701.26 352.72 702.34 358.83 700.06 364.38 C 697.45 371.44 690.92 376.07 684.44 379.31 C 688.76 380.94 693.55 380.08 697.93 381.59 C 706.08 383.58 712.53 389.82 717.20 396.53 C 723.34 407.25 726.25 419.39 730.35 430.93 C 730.44 431.49 730.63 432.59 730.72 433.15 C 731.87 436.02 732.95 438.93 733.82 441.91 C 726.01 438.79 718.14 434.81 709.47 435.32 C 714.46 441.42 722.42 443.45 729.06 447.16 C 731.40 447.67 733.81 448.05 736.03 449.05 C 739.07 454.27 739.63 460.43 741.81 465.99 C 743.80 471.23 745.68 476.52 747.28 481.90 C 748.06 483.94 746.35 485.86 746.61 487.93 C 746.97 492.73 746.52 497.53 746.27 502.33 C 735.02 506.41 723.50 509.69 712.24 513.73 C 712.28 512.97 712.37 511.43 712.41 510.66 C 711.84 510.40 710.71 509.88 710.14 509.63 C 709.50 509.91 708.22 510.46 707.58 510.74 C 707.06 512.38 706.56 514.03 706.15 515.71 C 702.12 501.77 697.02 488.17 692.72 474.32 C 687.92 459.94 683.23 445.54 678.51 431.13 C 675.86 424.12 673.74 416.77 669.51 410.51 C 666.03 405.72 659.26 407.42 654.43 408.77 C 661.63 431.60 669.43 454.25 676.74 477.05 C 680.21 486.71 682.88 496.64 686.57 506.23 C 685.38 507.71 683.37 508.87 683.22 510.93 C 682.75 513.75 685.51 515.42 686.97 517.41 C 688.04 517.03 689.13 516.68 690.22 516.34 C 690.40 517.80 690.59 519.26 690.78 520.73 C 677.74 524.97 664.76 529.33 651.72 533.57 C 645.95 526.27 640.93 517.90 632.71 513.05 C 627.28 497.69 622.56 482.08 617.24 466.68 C 616.43 465.54 617.32 464.39 617.56 463.27 C 617.14 463.11 616.31 462.79 615.90 462.63 C 611.13 447.96 606.33 433.30 601.54 418.64 C 597.90 408.93 595.44 398.82 591.55 389.20 C 592.08 388.54 592.62 387.90 593.18 387.27 L 594.10 389.55 C 595.04 387.99 593.44 386.85 592.83 385.64 L 592.54 387.62 C 592.08 387.39 591.16 386.92 590.70 386.68 C 588.52 378.40 585.34 370.39 582.93 362.17 C 580.33 355.25 578.56 348.05 575.83 341.18 C 570.91 325.33 565.57 309.60 560.38 293.83 C 562.60 295.08 564.71 296.52 566.81 297.96 C 566.31 299.74 565.81 301.52 565.30 303.30 C 565.98 302.65 567.34 301.34 568.02 300.69 C 570.12 301.32 572.64 301.13 574.32 302.75 C 578.94 306.64 584.47 309.18 589.41 312.62 C 591.57 314.05 592.66 316.50 593.86 318.71 C 595.25 318.68 596.63 318.61 598.03 318.54 C 596.66 312.99 590.55 311.51 586.51 308.43 C 580.86 304.91 577.41 298.53 570.91 296.30 C 572.45 293.02 575.60 291.09 577.77 288.31 C 580.02 285.84 581.01 281.79 584.68 281.08 C 591.81 278.89 598.75 276.06 606.01 274.25 C 615.83 270.87 625.92 268.27 636.13 266.36 Z" />
<path fill="#fefbfb" d=" M 1040.39 266.48 C 1041.98 266.16 1043.57 265.83 1045.19 265.53 C 1045.50 266.00 1046.14 266.93 1046.46 267.39 C 1044.63 268.55 1042.46 268.57 1040.38 268.61 C 1040.38 268.08 1040.38 267.01 1040.39 266.48 Z" />
<path fill="#fefbfb" d=" M 733.38 271.51 C 734.06 271.21 734.74 270.92 735.43 270.63 C 735.42 271.13 735.40 272.15 735.39 272.66 C 738.09 272.17 740.90 271.34 743.56 272.51 C 743.51 273.82 743.46 275.14 743.42 276.46 C 741.59 276.37 739.57 276.91 737.93 275.91 C 736.08 275.03 735.34 272.97 734.48 271.27 C 734.21 271.33 733.66 271.45 733.38 271.51 Z" />
<path fill="#fefbfb" d=" M 994.36 270.40 C 994.93 270.44 996.05 270.53 996.62 270.57 C 1002.42 277.16 1007.77 284.17 1012.30 291.70 C 1013.09 292.91 1013.48 294.31 1013.82 295.72 C 1005.86 288.52 1000.63 278.98 994.36 270.40 Z" />
<path fill="#fefbfb" d=" M 712.02 271.26 C 713.73 271.21 715.46 271.21 717.19 271.26 C 717.59 271.69 718.38 272.56 718.77 272.99 C 720.96 273.56 723.32 274.36 724.44 276.52 C 724.81 279.19 722.14 280.96 720.89 283.04 C 715.90 281.33 712.75 276.31 712.02 271.26 Z" />
<path fill="#ea1011" d=" M 454.69 271.71 C 460.00 276.75 464.57 282.55 468.72 288.57 C 467.47 288.58 466.24 288.58 465.01 288.57 C 461.47 283.04 456.89 277.98 454.69 271.71 Z" />
<path fill="#fefbfb" d=" M 885.74 271.76 C 891.46 273.07 894.84 278.35 898.25 282.66 C 901.47 287.50 905.31 292.16 906.85 297.87 C 905.90 297.70 903.99 297.36 903.03 297.20 C 898.11 293.26 895.31 287.49 891.74 282.44 C 889.53 279.00 887.02 275.68 885.74 271.76 Z" />
<path fill="#fefbfb" d=" M 1048.22 275.57 C 1049.48 275.07 1050.78 274.77 1052.14 274.68 C 1053.49 275.88 1053.50 277.76 1053.90 279.40 C 1052.23 279.43 1050.37 280.25 1048.86 279.23 C 1048.04 278.18 1048.32 276.78 1048.22 275.57 Z" />
<path fill="#fefbfb" d=" M 982.62 275.28 C 983.51 275.31 985.30 275.37 986.19 275.40 C 989.61 277.53 993.75 280.67 992.08 285.33 C 987.85 286.06 985.04 281.84 982.30 279.28 C 982.38 278.28 982.54 276.28 982.62 275.28 Z" />
<path fill="#ea1011" d=" M 436.13 278.74 C 437.31 278.29 438.48 277.78 439.69 277.43 C 441.62 280.33 442.58 283.80 444.99 286.40 C 445.49 286.48 446.50 286.65 447.01 286.74 C 447.54 288.57 448.47 290.25 449.60 291.79 C 452.11 291.64 454.62 291.51 457.14 291.66 C 454.43 293.27 451.39 294.68 448.18 294.65 C 445.52 292.03 443.07 289.18 440.01 287.02 C 438.81 284.22 437.44 281.49 436.13 278.74 Z" />
<path fill="#ea1011" d=" M 410.25 286.97 C 415.11 285.79 419.77 283.97 424.52 282.41 C 424.67 284.31 424.82 286.22 424.96 288.13 C 424.19 288.70 423.41 289.27 422.64 289.84 C 422.61 290.45 422.55 291.69 422.51 292.31 C 423.75 291.74 424.76 290.88 425.06 289.45 C 425.82 289.42 427.35 289.36 428.12 289.33 C 428.94 292.22 431.51 294.24 431.89 297.32 C 430.98 297.30 429.15 297.27 428.23 297.25 C 428.31 298.18 428.45 300.04 428.53 300.97 C 424.29 298.52 420.02 296.11 415.56 294.12 C 417.62 298.05 422.14 299.44 424.61 302.99 C 415.34 305.77 406.31 309.31 396.99 311.89 C 393.12 306.34 388.85 301.10 385.06 295.50 C 391.59 293.23 398.23 291.29 404.73 288.93 C 407.95 287.46 410.18 291.63 413.28 291.79 C 412.18 290.15 411.34 288.55 410.25 286.97 Z" />
<path fill="#ea1011" d=" M 561.09 288.72 C 567.22 286.91 573.25 284.84 579.30 282.79 C 580.65 285.78 577.93 287.55 576.11 289.38 L 574.60 287.54 C 574.87 288.08 575.40 289.16 575.67 289.70 C 575.05 289.99 573.80 290.57 573.18 290.86 C 572.57 293.62 570.09 295.18 568.18 297.01 C 566.06 294.05 563.66 291.30 561.09 288.72 Z" />
<path fill="#fefbfb" d=" M 972.26 282.07 C 974.53 282.44 977.65 281.84 979.10 284.11 C 980.40 285.72 979.54 288.01 979.82 289.89 C 977.17 289.65 974.76 288.61 972.49 287.33 C 972.38 285.58 972.31 283.82 972.26 282.07 Z" />
<path fill="#fefbfb" d=" M 1042.35 286.76 C 1044.51 285.54 1046.86 284.75 1049.36 284.58 C 1049.38 285.02 1049.41 285.90 1049.42 286.34 C 1047.34 287.89 1044.96 288.97 1042.46 289.58 C 1042.40 288.64 1042.37 287.70 1042.35 286.76 Z" />
<path fill="#fefbfb" d=" M 1132.11 283.74 C 1135.23 284.26 1136.91 287.11 1138.72 289.38 C 1140.90 292.19 1142.59 295.35 1143.82 298.69 C 1144.42 298.70 1145.61 298.72 1146.21 298.73 C 1146.28 299.04 1146.43 299.66 1146.50 299.97 C 1144.66 300.38 1144.28 302.02 1143.95 303.61 C 1140.45 304.19 1138.41 300.98 1136.76 298.46 C 1134.86 295.24 1133.83 291.63 1132.57 288.15 C 1132.39 286.68 1132.23 285.21 1132.11 283.74 Z" />
<path fill="#fefbfb" d=" M 400.50 292.87 C 404.66 292.64 407.14 295.87 408.60 299.31 C 409.48 299.33 411.26 299.36 412.15 299.38 C 411.28 300.94 410.40 302.48 409.49 304.01 C 405.65 301.06 402.38 297.36 400.50 292.87 Z" />
<path fill="#ea1011" d=" M 489.16 312.24 C 505.87 307.37 522.21 301.25 538.89 296.28 L 539.65 296.44 C 542.35 303.02 543.93 310.00 546.41 316.66 C 549.45 324.90 551.49 333.48 554.84 341.62 C 553.88 341.61 551.96 341.59 551.00 341.58 C 552.78 343.53 554.77 345.33 556.30 347.50 C 557.33 349.66 557.96 352.00 558.73 354.26 C 556.23 354.17 553.73 354.28 551.25 354.53 C 551.08 359.87 554.76 364.35 559.21 366.84 C 560.95 368.17 563.66 368.74 564.35 371.08 C 571.33 392.21 578.28 413.35 585.24 434.48 C 592.50 457.77 601.52 480.60 606.27 504.60 C 607.78 519.10 605.09 534.65 596.64 546.78 C 589.71 556.46 579.28 563.14 568.08 566.86 C 558.99 570.03 549.17 571.59 539.60 570.40 C 518.87 550.95 510.52 522.70 493.29 500.64 C 490.18 496.82 487.26 492.75 483.30 489.76 C 485.19 507.16 500.12 518.65 507.17 533.83 C 508.17 537.02 509.18 540.23 509.51 543.58 C 513.32 541.85 516.10 544.84 518.68 547.13 C 518.38 548.81 518.03 550.47 517.64 552.14 C 519.08 556.12 521.73 559.52 523.25 563.47 C 524.86 563.01 526.47 562.58 528.12 562.22 C 529.90 564.42 531.63 566.82 531.85 569.75 C 530.25 569.20 528.68 568.59 527.14 567.94 C 521.85 567.11 517.01 564.43 512.75 561.31 C 506.70 555.06 504.12 546.22 497.76 540.23 C 497.37 540.00 496.58 539.53 496.19 539.29 C 498.45 544.30 501.42 548.95 503.94 553.83 C 498.59 547.65 493.80 540.87 490.84 533.20 C 487.52 524.49 484.28 515.75 481.24 506.94 C 478.75 500.01 476.63 492.95 474.14 486.02 C 471.12 476.33 467.57 466.79 464.98 456.97 C 471.04 463.06 475.52 470.45 480.98 477.03 C 481.70 478.05 482.94 478.32 484.08 478.63 C 484.44 477.10 485.58 475.66 485.27 474.05 C 475.75 468.28 469.25 458.95 462.89 450.08 C 461.69 448.54 461.13 446.65 460.56 444.83 C 457.88 435.84 454.34 427.12 452.13 417.99 C 451.93 417.44 451.53 416.34 451.32 415.79 C 450.76 414.22 450.25 412.62 449.71 411.05 C 447.30 405.91 446.66 400.18 444.17 395.06 C 441.45 385.62 437.55 376.52 435.40 366.92 C 433.19 361.98 430.47 356.72 431.91 351.15 C 430.71 350.24 429.07 349.55 428.70 347.93 C 427.23 343.35 425.43 338.87 424.33 334.17 C 425.60 335.15 426.87 336.13 428.15 337.10 C 428.37 337.61 428.80 338.64 429.02 339.16 C 430.80 338.59 432.53 337.90 434.33 337.36 C 439.18 340.58 443.95 345.13 444.73 351.20 C 445.92 350.48 448.28 350.06 447.45 348.16 C 443.16 341.97 438.62 335.93 432.99 330.88 C 439.64 329.17 445.92 325.95 452.75 325.14 C 460.74 332.57 469.27 339.40 477.05 347.07 C 477.41 348.57 477.54 350.18 478.31 351.56 C 480.65 352.63 482.68 350.37 484.06 348.75 C 484.39 348.66 485.05 348.46 485.38 348.37 C 485.44 349.96 485.49 351.55 485.55 353.15 C 486.33 353.94 487.27 354.73 487.50 355.90 C 492.24 371.40 497.66 386.67 502.58 402.11 C 500.90 400.91 499.23 399.70 497.55 398.52 C 496.94 398.53 495.71 398.57 495.10 398.58 C 497.51 402.23 500.80 405.11 504.00 408.03 C 506.37 411.17 506.78 415.28 508.13 418.89 C 514.93 439.69 521.88 460.43 528.63 481.24 C 530.71 487.84 533.49 494.30 534.67 501.12 C 538.51 508.56 539.82 517.24 544.76 524.20 C 546.47 526.56 549.65 525.61 552.12 525.64 C 552.59 525.26 553.53 524.50 554.00 524.12 C 554.35 523.59 555.06 522.52 555.41 521.98 C 555.81 514.31 552.66 507.14 550.63 499.90 C 548.36 491.92 545.31 484.18 542.96 476.23 C 533.48 447.85 524.26 419.39 514.81 391.01 C 509.13 372.68 502.43 354.65 497.09 336.24 C 498.29 334.83 499.22 333.22 499.81 331.46 C 498.16 331.05 496.54 330.66 494.90 330.26 C 492.90 324.28 490.60 318.39 489.16 312.24 Z" />
<path fill="#ea1011" d=" M 377.11 298.01 C 378.57 297.54 380.03 297.03 381.48 296.49 C 386.32 300.71 389.22 306.62 392.92 311.78 C 388.84 312.38 386.50 308.48 383.59 306.39 C 381.21 303.83 377.39 301.86 377.11 298.01 Z" />
<path fill="#fefbfb" d=" M 622.39 297.84 C 626.10 302.31 629.29 307.67 628.59 313.73 C 632.44 313.73 636.98 314.17 639.46 317.55 C 644.32 324.56 645.86 333.10 648.79 340.96 C 651.12 348.21 654.12 355.85 652.54 363.57 C 649.62 366.80 645.83 369.11 641.60 370.20 C 635.44 352.11 629.89 333.80 623.51 315.79 C 625.21 315.51 625.91 314.60 625.61 313.06 C 624.23 308.06 621.77 303.17 622.39 297.84 Z" />
<path fill="#fefbfb" d=" M 769.27 298.20 C 778.37 308.74 786.30 320.22 795.17 330.95 C 802.97 341.09 810.62 351.37 818.73 361.27 C 823.48 366.13 827.16 371.87 830.61 377.69 C 828.49 376.02 826.55 374.15 824.90 372.03 C 819.93 365.93 814.87 359.89 810.18 353.57 C 798.90 339.20 788.11 324.45 776.88 310.04 C 774.04 306.30 771.31 302.45 769.27 298.20 Z" />
<path fill="#ea1011" d=" M 363.95 302.48 C 367.29 301.42 370.50 299.66 374.05 299.46 C 378.33 304.43 381.87 309.93 385.64 315.27 C 382.06 317.41 377.87 318.12 374.01 319.61 C 370.40 320.73 366.90 322.67 363.03 322.67 C 360.48 320.89 359.59 317.20 356.17 316.53 C 355.38 316.88 353.80 317.57 353.00 317.92 C 354.52 320.07 356.27 322.04 357.96 324.05 C 356.31 326.32 352.74 326.27 350.36 327.67 C 350.48 326.15 350.62 324.64 350.70 323.12 C 346.32 319.48 341.98 315.79 337.59 312.16 C 337.56 311.85 337.50 311.25 337.46 310.94 C 341.69 310.06 345.66 307.70 350.11 308.51 C 353.78 304.68 359.27 304.37 363.95 302.48 Z" />
<path fill="#fefbfb" d=" M 369.23 306.39 C 371.07 306.37 372.92 306.45 374.77 306.50 C 375.26 308.79 374.02 310.49 372.19 311.66 C 371.26 309.89 369.40 308.47 369.23 306.39 Z" />
<path fill="#fefbfb" d=" M 995.06 307.18 C 999.21 307.92 1001.49 311.91 1004.29 314.65 C 1009.55 319.89 1013.82 325.99 1017.71 332.28 C 1018.46 334.14 1020.67 334.17 1022.30 334.80 C 1022.69 336.35 1024.31 338.21 1023.01 339.72 C 1021.85 340.83 1021.16 342.26 1022.11 343.76 C 1024.41 348.55 1030.34 349.91 1032.87 354.48 C 1032.55 354.62 1031.91 354.89 1031.59 355.02 C 1030.17 353.55 1029.10 351.82 1027.90 350.19 C 1025.21 347.24 1021.44 345.45 1019.21 342.07 C 1017.66 340.69 1015.53 339.40 1015.41 337.11 C 1016.20 336.37 1017.03 335.67 1017.90 335.00 C 1008.90 326.99 1001.26 317.48 995.06 307.18 Z" />
<path fill="#ea1011" d=" M 269.46 333.46 C 290.11 326.66 310.79 319.96 331.43 313.14 C 335.53 318.37 339.35 323.81 342.85 329.46 C 340.80 330.54 338.64 331.36 336.39 331.88 C 336.38 331.11 336.37 330.34 336.36 329.57 C 335.95 329.60 335.13 329.65 334.72 329.67 C 334.72 330.61 334.72 331.55 334.73 332.50 C 333.49 332.96 332.25 333.43 331.01 333.89 C 306.66 341.75 282.35 349.78 258.07 357.87 C 248.32 360.53 239.05 364.77 229.15 366.89 C 225.90 361.24 224.92 354.72 224.19 348.34 C 236.23 344.73 247.99 340.07 260.18 337.04 C 260.38 339.99 260.09 343.14 261.54 345.84 C 265.10 345.92 268.26 343.22 269.50 340.01 C 269.86 337.83 269.36 335.64 269.46 333.46 Z" />
<path fill="#fefbfb" d=" M 652.68 317.60 C 653.58 317.25 654.48 316.90 655.38 316.55 C 655.23 317.96 655.96 319.67 654.90 320.85 C 652.21 323.98 649.58 327.24 646.20 329.68 C 648.01 325.48 650.06 321.36 652.68 317.60 Z" />
<path fill="#ea1011" d=" M 455.78 323.19 C 462.34 321.76 468.43 318.75 475.02 317.40 C 476.66 323.94 479.08 330.26 480.84 336.78 C 478.99 334.01 476.57 331.44 472.86 332.39 C 474.51 336.12 479.03 337.39 481.51 340.56 C 481.52 341.16 481.52 342.35 481.52 342.94 C 473.43 338.52 466.04 332.96 458.96 327.09 C 457.65 326.01 456.47 324.75 455.78 323.19 Z" />
<path fill="#fefbfb" d=" M 530.54 334.55 C 534.98 329.35 540.60 325.24 544.52 319.58 L 542.66 322.95 L 546.54 321.70 C 544.79 322.47 542.91 323.14 541.64 324.64 C 537.59 328.92 533.08 332.77 529.40 337.39 C 527.89 338.57 525.96 339.36 525.00 341.11 C 522.77 345.10 518.11 346.79 515.44 350.43 C 513.77 352.78 511.64 354.74 509.48 356.64 C 509.50 357.32 509.55 358.70 509.57 359.39 C 508.46 359.20 507.36 359.01 506.26 358.82 L 507.67 358.91 C 507.64 358.22 507.57 356.83 507.53 356.13 C 508.83 355.73 509.85 354.80 510.76 353.82 C 511.22 353.54 512.15 352.98 512.62 352.70 C 514.15 349.84 517.61 348.77 519.11 345.86 C 520.68 344.21 522.47 342.79 524.06 341.15 C 526.20 338.93 527.97 336.33 530.54 334.55 Z" />
<path fill="#fefbfb" d=" M 758.24 328.12 C 758.62 326.13 758.81 323.29 761.11 322.55 C 762.87 322.51 765.10 323.32 765.69 325.14 C 766.05 328.90 760.69 330.92 758.24 328.12 Z" />
<path fill="#fefbfb" d=" M 1082.97 322.10 C 1084.34 322.65 1085.71 323.27 1087.08 323.90 C 1085.72 324.71 1084.63 326.52 1082.86 326.19 C 1082.78 324.83 1082.88 323.46 1082.97 322.10 Z" />
<path fill="#fefbfb" d=" M 762.97 335.17 C 775.82 334.85 787.25 341.81 797.98 348.05 C 801.40 350.22 804.99 352.16 808.14 354.75 C 798.13 351.29 787.81 348.73 778.03 344.64 C 772.75 341.94 767.09 339.58 762.97 335.17 Z" />
<path fill="#fefbfb" d=" M 455.69 337.42 C 456.71 337.40 457.73 337.39 458.76 337.39 C 458.60 338.31 458.44 339.23 458.29 340.15 C 457.78 340.26 456.76 340.49 456.25 340.60 C 456.06 339.54 455.87 338.48 455.69 337.42 Z" />
<path fill="#fefbfb" d=" M 1004.97 340.63 C 1006.24 337.82 1009.11 336.80 1012.04 337.33 C 1010.57 339.86 1007.67 340.44 1004.97 340.63 Z" />
<path fill="#ea1011" d=" M 387.87 345.81 C 396.32 342.94 404.82 340.25 413.32 337.52 C 414.66 340.76 415.87 344.08 416.68 347.51 C 414.22 346.07 411.72 344.64 408.92 344.01 C 410.71 351.68 419.85 354.42 421.60 362.05 C 424.27 370.60 427.56 378.98 429.71 387.69 C 426.71 388.22 424.25 386.67 421.97 384.94 C 422.51 386.35 423.15 387.77 423.75 389.17 C 416.30 391.48 408.90 393.97 401.51 396.45 C 400.73 395.51 399.96 394.56 399.21 393.61 C 397.05 392.99 394.83 392.66 392.62 393.20 C 392.00 395.05 390.59 396.96 391.64 398.95 C 393.06 401.71 396.42 403.30 399.20 401.45 C 399.69 401.50 400.66 401.60 401.15 401.65 C 404.75 410.18 406.85 419.23 410.10 427.89 C 410.84 429.91 411.39 431.98 411.84 434.09 C 413.43 437.90 414.56 441.88 416.09 445.71 C 428.84 485.50 442.19 525.09 455.15 564.81 C 458.38 574.95 462.09 584.97 464.95 595.21 C 461.17 596.26 457.47 597.55 453.70 598.64 C 453.32 596.77 452.92 594.92 452.53 593.08 C 451.75 593.49 450.20 594.31 449.42 594.73 C 448.93 596.18 448.47 597.64 448.06 599.14 C 448.53 599.34 449.47 599.76 449.95 599.96 C 446.91 601.07 443.85 602.12 440.72 602.93 C 438.04 596.26 434.68 589.88 430.34 584.14 C 432.11 591.01 435.24 597.40 437.50 604.11 C 429.80 606.36 422.35 609.42 414.59 611.46 C 410.45 599.65 406.60 587.70 402.77 575.78 C 403.61 573.19 403.29 570.59 402.29 568.10 C 401.73 567.85 400.60 567.33 400.04 567.08 C 397.47 560.16 395.11 553.15 392.97 546.09 C 381.71 512.39 370.84 478.57 359.53 444.89 C 356.67 435.15 352.96 425.68 350.24 415.89 C 351.54 414.78 352.04 413.26 352.04 411.59 C 351.40 411.57 350.11 411.54 349.47 411.52 C 349.53 411.99 349.66 412.93 349.73 413.40 C 341.22 416.41 332.53 418.89 324.06 422.01 C 322.49 422.56 320.82 422.70 319.19 422.96 C 315.05 406.04 311.54 388.98 308.31 371.87 C 315.30 369.95 322.03 367.20 329.00 365.20 C 343.69 360.43 358.30 355.43 373.03 350.78 C 377.40 349.44 381.59 347.00 386.31 347.33 C 386.70 346.95 387.48 346.19 387.87 345.81 Z" />
<path fill="#fefbfb" d=" M 590.04 339.39 C 591.80 338.74 593.66 338.55 595.54 338.61 C 596.07 341.56 595.71 344.57 592.80 346.12 C 591.61 343.99 590.77 341.70 590.04 339.39 Z" />
<path fill="#fefbfb" d=" M 430.43 342.42 C 431.46 343.06 432.48 343.71 433.51 344.38 C 433.42 344.80 433.24 345.64 433.15 346.06 C 432.36 346.68 431.57 347.30 430.79 347.92 C 430.61 346.09 430.48 344.25 430.43 342.42 Z" />
<path fill="#fefbfb" d=" M 1069.66 344.65 C 1072.21 343.79 1075.61 342.81 1077.49 345.45 C 1079.63 347.69 1078.08 350.66 1077.54 353.18 C 1077.79 354.91 1078.42 356.53 1078.88 358.22 C 1076.50 359.74 1073.60 361.94 1070.69 360.35 C 1068.17 358.49 1069.48 354.81 1069.36 352.18 C 1067.49 349.84 1068.51 347.04 1069.66 344.65 Z" />
<path fill="#fefbfb" d=" M 394.16 359.57 C 392.44 356.77 389.21 353.15 391.82 349.91 C 399.35 359.89 406.28 370.37 411.76 381.64 C 404.62 375.38 398.98 367.70 394.16 359.57 Z" />
<path fill="#ea1011" d=" M 198.98 356.72 C 204.76 354.73 210.55 352.71 216.47 351.17 C 216.60 353.02 216.72 354.87 216.84 356.74 C 218.84 355.42 220.86 354.13 222.99 353.03 C 223.43 358.43 226.56 363.16 226.79 368.61 C 225.05 368.72 223.81 367.98 223.08 366.37 C 222.35 366.40 221.63 366.44 220.92 366.48 C 221.12 367.22 221.52 368.71 221.72 369.45 C 216.18 371.84 210.30 373.36 204.63 375.44 C 195.48 378.15 186.59 381.67 177.38 384.18 C 177.14 377.61 177.73 370.96 176.52 364.46 C 183.85 361.43 191.47 359.24 198.98 356.72 Z" />
<path fill="#ea1011" d=" M 846.51 352.01 C 846.75 351.83 847.23 351.49 847.47 351.32 L 847.31 352.20 C 851.15 352.31 852.79 355.90 853.13 359.23 C 850.69 357.04 848.63 354.48 846.51 352.01 Z" />
<path fill="#fefbfb" d=" M 1011.93 352.88 C 1013.31 352.03 1015.06 352.23 1016.62 351.86 C 1016.71 353.82 1017.14 356.27 1015.11 357.45 C 1013.37 357.51 1011.79 356.75 1010.18 356.29 C 1010.69 355.12 1011.28 353.98 1011.93 352.88 Z" />
<path fill="#fefbfb" d=" M 1098.77 357.83 C 1101.44 356.99 1104.18 356.39 1107.00 356.37 C 1106.50 357.68 1105.99 358.99 1105.46 360.30 C 1103.08 360.27 1100.72 360.17 1098.37 359.92 C 1098.47 359.40 1098.67 358.35 1098.77 357.83 Z" />
<path fill="#fefbfb" d=" M 1079.35 356.44 C 1081.23 356.48 1083.12 356.56 1085.02 356.69 C 1084.58 358.42 1083.41 359.70 1082.14 360.86 C 1080.60 359.78 1079.33 358.44 1079.35 356.44 Z" />
<path fill="#ea1011" d=" M 155.21 371.11 C 161.71 369.27 167.91 366.46 174.53 365.03 C 174.64 367.02 174.75 369.01 174.90 371.01 C 175.68 375.58 175.40 380.25 175.60 384.87 C 167.91 387.97 159.79 389.79 152.06 392.78 C 150.04 393.69 147.82 393.50 145.70 393.17 C 138.35 390.80 130.77 389.11 123.15 387.87 C 123.18 388.70 123.23 390.38 123.25 391.21 C 130.28 392.15 137.26 393.55 144.19 395.06 C 137.54 397.62 130.79 399.89 123.89 401.69 C 110.08 407.40 94.36 409.62 82.58 419.46 C 80.00 419.21 77.45 418.78 74.88 418.46 C 74.38 419.01 73.88 419.56 73.37 420.11 C 74.79 420.72 76.20 421.34 77.63 421.91 C 77.44 423.11 77.70 424.59 76.48 425.33 C 75.07 425.81 73.51 425.43 72.05 425.52 C 68.60 426.56 64.91 427.27 62.30 429.97 C 64.52 431.27 66.86 432.35 69.27 433.27 C 66.06 438.84 62.29 444.35 61.01 450.75 C 58.27 450.73 55.74 449.65 53.22 448.70 C 49.45 448.06 45.71 447.25 41.97 446.47 C 44.38 434.33 52.00 424.00 59.75 414.64 C 63.63 409.87 68.61 406.21 73.33 402.33 C 78.75 399.19 83.74 395.23 89.64 392.97 C 99.94 389.28 110.36 385.81 120.81 382.66 C 132.09 378.27 143.80 375.14 155.21 371.11 Z" />
<path fill="#fefbfb" d=" M 1004.42 366.44 C 1005.38 366.51 1006.35 366.58 1007.33 366.66 C 1007.36 367.49 1007.41 368.34 1007.47 369.19 C 1006.46 369.19 1005.47 369.21 1004.49 369.22 C 1004.45 368.29 1004.43 367.36 1004.42 366.44 Z" />
<path fill="#fefbfb" d=" M 1009.95 369.75 C 1011.70 369.19 1013.55 369.18 1015.38 369.42 C 1016.10 370.03 1016.85 370.63 1017.61 371.23 C 1014.88 372.67 1012.17 371.58 1009.95 369.75 Z" />
<path fill="#fefbfb" d=" M 324.74 368.05 C 326.38 368.52 328.03 369.05 329.66 369.60 C 330.28 372.17 329.89 374.77 329.42 377.34 C 330.30 377.38 332.06 377.46 332.94 377.50 C 332.75 378.75 332.67 380.05 332.19 381.24 C 330.83 381.42 329.46 381.55 328.09 381.63 C 326.45 379.44 324.80 377.12 322.30 375.84 C 324.04 382.26 326.86 388.29 329.90 394.18 C 329.46 395.76 327.96 396.74 326.96 397.97 C 323.52 389.09 318.40 380.69 316.99 371.15 C 319.46 371.85 322.03 372.98 324.56 371.81 C 324.61 370.87 324.69 368.99 324.74 368.05 Z" />
<path fill="#ea1011" d=" M 303.25 373.49 C 303.83 373.39 305.00 373.19 305.59 373.10 C 306.82 379.12 308.74 384.99 309.63 391.08 C 306.36 385.72 305.06 379.44 303.25 373.49 Z" />
<path fill="#fefbfb" d=" M 1068.48 374.59 C 1069.42 374.56 1070.37 374.55 1071.34 374.54 C 1071.33 375.44 1071.35 376.35 1071.37 377.26 C 1070.82 377.34 1069.73 377.49 1069.18 377.57 C 1068.94 376.57 1068.69 375.58 1068.48 374.59 Z" />
<path fill="#ea1011" d=" M 273.13 383.57 C 281.32 381.24 289.13 377.61 297.50 375.96 C 299.61 383.45 302.42 390.72 304.65 398.18 C 307.53 407.21 311.06 416.05 313.18 425.31 C 302.31 429.47 290.97 432.29 280.18 436.65 C 284.83 452.15 290.59 467.32 295.03 482.89 C 305.98 480.52 316.26 475.58 327.18 473.12 C 328.63 478.09 329.99 483.11 331.91 487.94 C 333.30 491.85 334.94 495.80 334.71 500.04 C 334.28 502.56 337.00 503.76 337.73 505.91 C 339.60 510.51 340.86 515.35 342.30 520.11 C 331.97 523.59 321.58 526.90 311.28 530.49 C 311.44 531.65 311.60 532.82 311.78 534.00 C 311.95 533.39 312.12 532.78 312.29 532.19 C 312.14 535.65 313.67 538.82 314.79 542.02 C 319.11 555.35 323.56 568.64 327.92 581.96 C 328.21 583.55 329.18 584.60 330.81 584.93 C 330.40 587.55 329.56 590.08 328.72 592.60 C 329.11 593.18 329.50 593.77 329.90 594.37 C 332.67 592.54 336.00 589.98 334.54 586.16 C 334.15 585.76 333.36 584.97 332.97 584.58 C 333.78 582.53 336.06 582.37 337.87 581.72 C 343.59 579.95 349.33 578.19 354.96 576.14 C 358.61 574.91 362.23 573.38 366.13 573.18 C 369.32 582.44 371.94 591.89 375.29 601.10 C 377.24 608.28 380.44 615.08 381.98 622.37 C 369.81 626.39 357.63 630.37 345.44 634.34 C 342.62 635.56 339.76 633.98 337.05 633.22 C 322.95 628.87 311.89 616.34 296.45 616.14 L 296.72 617.81 C 295.11 617.75 293.52 617.71 291.92 617.67 C 293.15 621.38 297.31 622.51 300.54 623.87 C 304.77 625.70 310.01 624.91 313.53 628.26 C 318.30 632.65 324.25 635.32 330.04 638.07 C 330.24 638.37 330.62 638.97 330.81 639.27 C 319.06 642.98 307.37 646.86 295.67 650.73 C 295.46 650.95 295.05 651.40 294.84 651.62 C 292.90 646.08 291.23 640.45 289.25 634.93 C 282.64 614.58 275.94 594.27 269.19 573.97 C 263.29 555.87 257.24 537.82 251.34 519.72 C 256.26 519.64 260.93 518.01 265.41 516.11 C 265.46 516.62 265.56 517.63 265.61 518.14 C 268.40 518.17 270.73 516.86 272.46 514.71 C 271.89 514.59 270.76 514.35 270.19 514.23 C 270.77 513.52 271.93 512.10 272.51 511.39 C 264.98 512.58 257.53 514.25 250.01 515.50 C 244.48 499.43 239.51 483.16 233.94 467.10 C 232.76 459.39 228.37 452.71 227.06 445.05 C 228.45 444.40 229.90 443.89 231.33 443.32 C 231.60 442.72 232.14 441.51 232.41 440.91 C 231.73 439.17 231.64 436.98 229.90 435.91 C 227.99 434.12 225.28 434.63 222.91 434.53 C 222.11 431.39 221.10 428.27 221.30 424.99 C 218.33 421.76 217.67 417.20 216.26 413.19 C 222.99 414.14 229.48 416.28 236.00 418.12 C 237.53 418.39 238.48 419.70 239.05 421.05 C 243.26 431.22 244.21 442.29 246.90 452.89 C 247.73 455.60 246.56 458.36 246.38 461.08 C 249.61 461.35 251.23 458.66 251.55 455.84 C 250.75 454.79 249.82 453.86 248.91 452.91 C 247.83 444.91 245.71 437.08 243.79 429.25 C 243.69 428.34 243.60 427.44 243.51 426.54 C 245.96 426.71 248.41 426.83 250.88 426.90 C 250.71 425.94 250.38 424.02 250.21 423.07 C 248.96 422.42 247.68 421.87 246.39 421.32 C 248.74 419.70 250.19 417.23 250.61 414.41 C 249.03 414.39 247.46 414.39 245.89 414.42 C 245.26 414.83 244.62 415.24 243.99 415.65 C 240.97 412.73 240.72 407.93 237.24 405.56 C 236.81 408.13 238.00 411.13 236.55 413.49 C 229.19 413.38 221.93 411.17 214.82 409.30 C 214.20 407.19 213.63 405.07 213.30 402.90 C 219.44 401.33 225.49 399.38 231.47 397.29 L 231.65 398.56 C 235.28 395.16 240.39 394.58 244.89 392.94 C 254.20 389.50 263.81 386.97 273.13 383.57 Z" />
<path fill="#fefbfb" d=" M 600.93 388.00 C 602.71 385.00 602.63 381.40 603.15 378.05 C 603.99 381.64 604.87 385.27 604.79 388.99 C 604.88 390.94 604.50 393.30 606.13 394.77 C 613.70 402.70 624.65 406.69 631.27 415.65 C 633.31 414.95 635.32 414.17 637.35 413.42 C 637.39 414.34 637.48 416.18 637.53 417.10 C 635.08 419.81 633.00 423.28 629.22 424.24 C 629.25 422.07 629.50 419.90 629.88 417.77 C 625.47 413.56 620.35 410.21 615.61 406.41 C 611.85 403.53 608.28 400.40 604.33 397.79 C 602.76 400.94 602.81 406.00 598.78 406.98 C 598.64 403.67 598.60 400.35 598.79 397.05 C 599.95 394.49 598.83 392.31 596.96 390.47 C 599.17 391.31 600.10 389.40 600.93 388.00 Z" />
<path fill="#fefbfb" d=" M 797.51 384.37 C 798.69 383.69 799.90 383.03 801.10 382.37 C 801.64 383.84 802.61 385.23 802.62 386.86 C 802.02 388.05 800.85 388.81 799.97 389.77 C 799.15 388.67 798.33 387.57 797.52 386.48 C 797.52 385.95 797.51 384.89 797.51 384.37 Z" />
<path fill="#fefbfb" d=" M 809.88 383.87 C 810.39 383.72 811.40 383.40 811.91 383.24 C 811.72 386.04 810.50 388.68 808.14 390.28 C 807.99 387.98 808.80 385.86 809.88 383.87 Z" />
<path fill="#fefbfb" d=" M 1049.19 386.51 C 1049.32 381.51 1055.44 381.99 1058.97 382.51 C 1058.84 383.24 1058.58 384.70 1058.45 385.43 C 1055.53 386.78 1052.32 386.84 1049.19 386.51 Z" />
<path fill="#ea1011" d=" M 1141.86 386.33 C 1143.47 388.36 1145.27 390.25 1147.02 392.19 C 1150.99 394.30 1155.48 394.62 1159.90 394.55 C 1159.86 394.78 1159.77 395.23 1159.73 395.46 L 1158.49 395.29 C 1157.78 402.10 1152.66 407.34 1149.12 412.89 C 1145.44 408.92 1140.68 406.24 1136.06 403.55 L 1134.79 403.42 C 1132.78 405.46 1131.54 408.08 1130.45 410.69 C 1130.51 415.15 1130.18 419.72 1131.77 423.99 C 1132.41 425.62 1132.99 427.28 1133.52 428.95 C 1130.32 430.93 1127.22 433.06 1123.92 434.87 C 1121.91 435.85 1119.91 436.83 1117.89 437.75 C 1112.84 440.94 1107.04 442.46 1101.40 444.23 C 1099.85 444.63 1098.22 444.35 1096.68 444.37 C 1096.36 444.69 1095.74 445.32 1095.43 445.64 C 1092.37 441.97 1089.83 437.75 1086.21 434.62 C 1085.33 434.56 1083.57 434.43 1082.68 434.37 C 1086.43 438.28 1090.15 442.32 1092.37 447.34 C 1088.54 448.52 1084.70 449.63 1080.85 450.71 C 1077.13 452.63 1073.05 453.61 1069.11 454.91 C 1063.69 456.66 1058.38 458.72 1052.91 460.29 C 1051.49 460.88 1050.15 460.27 1049.04 459.40 C 1048.23 459.36 1046.60 459.28 1045.79 459.24 C 1045.21 460.50 1044.75 461.82 1044.08 463.04 C 1038.21 465.55 1031.90 466.82 1025.99 469.22 C 1021.71 470.70 1017.33 471.88 1013.05 473.32 C 1011.54 472.93 1010.04 472.59 1008.54 472.28 C 1008.51 472.94 1008.44 474.27 1008.41 474.93 C 1004.06 476.19 999.72 478.87 995.09 477.21 C 995.18 477.71 995.38 478.69 995.47 479.18 C 956.67 491.94 917.87 504.72 879.08 517.50 C 876.26 518.89 874.31 516.07 872.39 514.55 C 868.43 510.93 864.00 507.86 860.15 504.15 L 860.54 503.00 C 888.71 493.82 916.85 484.50 945.00 475.25 C 945.68 478.02 948.50 478.98 951.10 478.86 C 950.71 478.20 949.93 476.88 949.54 476.22 C 949.99 475.29 950.43 474.37 950.88 473.45 C 952.86 472.43 955.04 472.02 957.25 472.64 C 957.36 472.23 957.58 471.40 957.69 470.98 C 964.51 468.97 971.18 466.44 978.02 464.49 C 984.87 463.86 991.85 463.26 998.44 461.16 C 998.69 460.75 999.20 459.94 999.46 459.53 C 994.88 460.08 990.42 461.47 985.78 461.60 C 988.77 460.73 991.76 459.87 994.72 458.90 C 1008.17 454.47 1021.63 450.04 1035.06 445.56 C 1037.46 447.98 1041.82 448.61 1044.16 445.74 C 1045.32 445.73 1046.50 445.74 1047.70 445.78 C 1047.49 444.28 1047.29 442.78 1047.12 441.29 C 1048.16 441.70 1049.21 442.11 1050.27 442.55 C 1051.37 441.78 1052.50 440.99 1053.13 439.75 C 1058.62 437.54 1064.36 436.02 1069.98 434.19 C 1074.84 432.46 1079.67 430.32 1084.91 430.15 C 1087.25 428.18 1090.25 427.37 1093.09 426.39 C 1097.31 425.06 1101.56 423.64 1106.00 423.24 C 1107.00 421.83 1108.42 420.87 1109.99 420.15 C 1119.79 416.49 1127.22 408.69 1133.98 400.98 C 1136.97 396.30 1140.55 391.85 1141.86 386.33 Z" />
<path fill="#fefbfb" d=" M 803.83 389.18 C 804.29 390.38 804.75 391.57 805.28 392.77 C 805.43 393.91 805.59 395.06 805.77 396.22 C 804.42 397.01 802.97 397.60 801.49 398.04 C 801.03 395.84 801.84 394.09 803.62 392.86 C 803.69 391.63 803.76 390.40 803.83 389.18 Z" />
<path fill="#fefbfb" d=" M 918.87 390.67 C 921.70 390.11 924.76 389.95 927.02 392.06 C 925.37 393.20 923.41 393.51 921.46 393.58 C 920.58 392.61 919.72 391.64 918.87 390.67 Z" />
<path fill="#fefbfb" d=" M 679.41 394.78 C 680.52 394.00 681.34 392.27 682.85 392.38 C 683.84 393.54 684.67 394.84 685.55 396.10 C 684.33 397.28 683.07 398.48 681.41 398.99 C 680.73 397.58 680.07 396.18 679.41 394.78 Z" />
<path fill="#fefbfb" d=" M 633.14 393.06 C 641.88 407.53 650.06 422.39 656.90 437.87 C 659.42 444.04 661.94 450.25 663.41 456.78 C 659.41 451.78 657.07 445.77 654.04 440.20 C 648.54 429.26 642.90 418.30 639.35 406.54 C 637.71 401.85 634.87 397.71 633.14 393.06 Z" />
<path fill="#fefbfb" d=" M 968.06 397.78 C 966.58 395.87 968.65 393.00 970.86 393.20 C 972.81 393.19 974.23 394.73 975.73 395.79 C 974.87 397.08 974.02 398.37 973.18 399.67 C 971.30 399.64 969.00 399.78 968.06 397.78 Z" />
<path fill="#fefbfb" d=" M 104.06 393.80 C 108.50 392.98 109.86 398.39 111.68 401.35 C 111.14 401.40 110.07 401.50 109.53 401.55 C 107.12 399.42 105.04 396.92 104.06 393.80 Z" />
<path fill="#fefbfb" d=" M 383.59 395.63 C 385.40 396.66 389.23 397.27 388.50 400.09 C 387.78 403.93 391.47 408.10 387.85 411.31 C 386.04 406.20 384.50 400.98 383.59 395.63 Z" />
<path fill="#fefbfb" d=" M 232.29 398.69 C 233.63 398.68 234.98 398.64 236.33 398.59 C 238.14 401.29 235.56 404.76 232.65 405.08 C 232.57 402.95 232.45 400.81 232.29 398.69 Z" />
<path fill="#fefbfb" d=" M 320.20 402.50 C 321.36 402.46 322.53 402.43 323.71 402.39 C 324.78 405.41 324.71 408.63 324.58 411.79 C 323.62 411.75 321.68 411.67 320.72 411.64 C 320.17 408.63 319.24 405.53 320.20 402.50 Z" />
<path fill="#fefbfb" d=" M 632.35 406.96 C 632.34 405.38 632.35 403.82 632.40 402.26 C 633.45 402.35 635.56 402.53 636.61 402.62 C 637.82 405.56 634.91 407.25 632.35 406.96 Z" />
<path fill="#fefbfb" d=" M 763.52 406.47 C 764.44 406.53 765.37 406.60 766.31 406.68 C 766.30 407.08 766.27 407.90 766.26 408.30 C 765.47 408.68 764.72 409.08 763.96 409.48 C 763.64 409.08 763.02 408.28 762.71 407.89 C 762.91 407.53 763.31 406.82 763.52 406.47 Z" />
<path fill="#fefbfb" d=" M 77.02 417.81 C 76.77 414.53 79.91 413.14 82.73 413.08 C 83.50 416.88 79.58 417.05 77.02 417.81 Z" />
<path fill="#fefbfb" d=" M 968.71 414.30 C 972.76 413.53 973.27 418.42 973.72 421.29 C 972.49 422.12 971.68 424.01 969.98 423.79 C 967.65 424.45 967.56 421.59 967.21 420.09 C 966.62 417.99 967.89 416.12 968.71 414.30 Z" />
<path fill="#fefbfb" d=" M 762.44 420.85 C 762.81 419.90 763.19 418.95 763.63 418.04 C 767.07 421.86 770.35 425.82 773.28 430.06 C 774.13 432.06 774.48 434.20 774.55 436.37 C 773.99 436.39 772.85 436.43 772.28 436.46 C 768.14 431.82 764.86 426.56 762.44 420.85 Z" />
<path fill="#fefbfb" d=" M 285.42 419.24 C 287.90 419.39 290.42 420.62 291.32 423.08 C 291.67 424.73 291.57 426.45 291.59 428.14 C 290.54 428.61 289.49 429.09 288.45 429.57 C 288.34 429.80 288.12 430.26 288.00 430.49 C 287.77 426.60 285.93 423.08 285.42 419.24 Z" />
<path fill="#ea1011" d=" M 142.65 427.55 C 150.49 424.52 158.92 423.45 167.22 422.50 C 167.99 425.67 167.77 429.59 170.69 431.71 C 172.09 431.71 173.50 431.73 174.91 431.78 C 175.26 434.25 178.06 434.33 179.94 435.06 C 184.08 436.31 188.52 435.54 192.05 433.07 C 197.81 438.79 202.88 445.44 205.75 453.09 C 209.04 457.54 210.42 463.05 212.70 468.03 C 217.72 482.92 223.46 498.05 223.49 513.98 C 223.74 521.90 218.72 529.03 212.25 533.14 C 210.27 534.35 208.36 535.66 206.60 537.17 C 211.04 537.54 215.55 537.53 219.86 538.81 C 225.98 540.23 230.93 544.43 235.11 548.91 C 239.17 552.76 241.61 557.92 243.64 563.04 C 247.57 573.96 251.51 584.88 254.88 595.99 C 260.59 612.57 265.96 629.27 271.45 645.92 C 272.57 649.78 274.80 653.67 274.60 657.71 C 259.14 662.53 243.93 668.29 228.32 672.60 C 225.10 663.56 222.03 654.44 219.33 645.22 C 220.10 645.30 221.63 645.45 222.40 645.53 C 222.46 644.15 222.50 642.77 222.53 641.41 C 222.10 641.50 221.25 641.68 220.82 641.77 C 220.67 642.66 220.37 644.44 220.22 645.33 C 217.72 643.21 217.36 639.79 216.33 636.88 C 214.23 629.42 211.26 622.24 209.19 614.77 C 205.76 604.51 202.17 594.29 199.13 583.90 C 196.51 578.23 194.78 572.00 190.90 567.03 C 186.87 563.43 180.96 564.87 176.35 566.41 C 178.13 572.10 180.39 577.69 181.63 583.51 C 179.80 584.60 177.90 585.57 176.13 586.75 C 176.98 588.78 177.48 591.20 179.35 592.61 C 180.88 594.51 183.23 593.05 185.12 592.60 C 187.63 601.20 190.76 609.61 193.35 618.18 C 194.16 621.44 196.96 624.92 194.78 628.19 C 193.44 630.80 196.66 632.51 198.45 633.70 C 201.40 641.54 203.49 649.68 206.41 657.53 C 204.87 657.91 203.34 658.30 201.80 658.67 C 200.88 659.47 199.96 660.28 199.05 661.10 C 199.78 661.44 201.23 662.12 201.96 662.45 C 203.72 661.65 205.49 660.86 207.27 660.08 C 209.15 666.06 211.24 671.98 213.01 678.00 C 209.30 680.33 205.39 678.64 201.43 678.66 C 201.45 679.77 201.47 680.89 201.50 682.03 C 198.00 682.70 194.62 683.84 191.32 685.18 C 181.66 688.04 172.20 691.45 162.63 694.59 C 160.86 689.85 159.40 685.00 157.91 680.17 C 159.32 681.38 161.01 681.90 162.89 681.75 C 162.72 678.35 159.26 677.77 156.66 677.21 C 155.53 673.46 154.38 669.71 153.21 665.98 C 151.09 660.36 149.33 654.63 147.54 648.91 C 146.40 645.28 144.50 641.84 144.16 638.00 C 144.32 635.32 146.38 632.75 145.20 630.07 C 144.35 627.77 141.83 627.02 139.86 626.01 C 134.46 609.18 128.79 592.45 123.36 575.64 C 121.33 569.22 118.24 562.94 118.23 556.08 C 118.25 554.61 116.61 554.02 115.78 553.06 C 115.30 549.55 115.15 546.00 115.20 542.47 C 117.48 544.16 120.04 543.09 119.76 540.22 C 118.27 540.30 116.79 540.40 115.31 540.53 C 117.01 532.14 119.64 523.62 118.16 514.99 C 115.52 525.44 115.13 536.25 113.81 546.90 C 112.46 541.23 109.60 535.99 108.86 530.17 C 107.55 527.65 105.98 524.97 106.49 522.02 C 106.78 519.06 109.18 516.08 107.50 513.18 C 107.57 511.77 107.66 510.36 107.76 508.96 C 109.83 500.15 110.19 491.04 111.50 482.10 C 112.93 481.33 114.39 480.11 116.08 481.00 C 117.54 481.91 117.94 480.19 118.61 479.29 C 118.22 478.86 117.44 477.98 117.05 477.55 C 114.39 478.88 111.79 480.33 109.10 481.60 C 108.59 481.69 107.58 481.86 107.08 481.95 C 108.00 482.05 108.93 482.16 109.86 482.28 C 107.98 495.00 106.88 507.82 106.16 520.66 C 104.51 518.41 103.41 515.84 102.67 513.17 C 101.18 508.02 99.24 503.01 97.93 497.81 C 98.47 497.42 99.56 496.64 100.10 496.26 C 100.07 491.78 100.61 487.30 100.17 482.84 C 99.52 487.03 99.27 491.29 98.08 495.39 C 97.76 495.48 97.12 495.65 96.79 495.74 C 94.34 485.18 89.52 475.30 87.30 464.70 C 88.14 463.79 88.98 462.89 89.81 461.98 C 88.20 461.04 86.10 460.61 84.96 459.04 C 83.51 455.07 82.25 451.02 81.24 446.92 C 81.86 446.62 83.10 446.01 83.72 445.71 C 84.33 445.62 85.54 445.44 86.15 445.35 C 98.27 441.64 110.06 437.05 122.16 433.29 C 127.83 431.34 133.62 429.72 139.44 428.26 C 139.47 428.77 139.52 429.80 139.55 430.31 C 140.31 430.34 141.85 430.41 142.62 430.44 C 142.63 429.72 142.64 428.27 142.65 427.55 Z" />
<path fill="#fefbfb" d=" M 255.54 427.21 C 255.72 423.23 260.31 421.81 263.68 422.48 C 263.72 424.35 263.62 426.23 263.34 428.09 C 265.04 427.71 266.75 427.39 268.48 427.12 C 268.49 428.59 268.49 430.06 268.47 431.54 C 266.77 431.54 264.66 432.35 263.40 430.80 C 261.57 428.03 257.35 429.98 255.54 427.21 Z" />
<path fill="#fefbfb" d=" M 54.34 432.40 C 56.19 432.37 58.05 432.38 59.90 432.43 C 59.54 434.11 59.01 435.74 58.33 437.33 C 57.39 437.38 56.45 437.45 55.51 437.53 C 55.08 435.82 54.66 434.12 54.34 432.40 Z" />
<path fill="#fefbfb" d=" M 1093.37 433.23 C 1093.38 432.79 1093.40 431.92 1093.41 431.49 C 1097.86 431.50 1102.36 432.57 1106.14 434.97 C 1106.36 435.53 1106.79 436.65 1107.00 437.21 C 1104.90 437.29 1102.84 437.37 1100.77 437.47 C 1098.24 436.14 1095.79 434.71 1093.37 433.23 Z" />
<path fill="#fefbfb" d=" M 631.42 436.79 C 632.39 436.70 634.34 436.52 635.31 436.43 C 638.52 438.95 640.70 442.44 642.59 446.00 C 637.30 446.44 630.62 442.86 631.42 436.79 Z" />
<path fill="#fefbfb" d=" M 392.78 438.19 C 394.50 441.07 395.61 444.24 396.78 447.37 C 396.22 447.47 395.11 447.68 394.55 447.78 C 393.78 444.62 393.04 441.44 392.78 438.19 Z" />
<path fill="#fefbfb" d=" M 851.38 438.68 C 851.80 438.66 852.63 438.62 853.05 438.60 C 853.87 439.59 854.71 440.56 855.58 441.54 C 855.66 442.71 855.75 443.89 855.84 445.07 C 852.51 444.77 851.84 441.36 851.38 438.68 Z" />
<path fill="#fefbfb" d=" M 1056.01 445.49 C 1058.82 443.16 1062.27 441.77 1065.89 441.31 C 1063.25 443.89 1059.83 445.92 1056.01 445.49 Z" />
<path fill="#fefbfb" d=" M 508.26 451.28 C 509.89 448.14 511.14 444.72 513.68 442.15 C 514.34 442.78 515.01 443.42 515.67 444.07 C 514.03 447.54 513.15 451.30 512.33 455.04 C 510.95 453.80 509.59 452.56 508.26 451.28 Z" />
<path fill="#fefbfb" d=" M 107.86 444.71 C 109.13 444.58 110.40 444.45 111.68 444.33 C 111.57 445.23 111.46 446.14 111.34 447.05 C 110.82 447.40 109.76 448.11 109.24 448.46 C 108.29 448.45 107.34 448.45 106.39 448.44 C 106.88 447.19 107.37 445.95 107.86 444.71 Z" />
<path fill="#fefbfb" d=" M 126.61 446.47 C 127.84 446.62 129.08 446.77 130.31 446.95 C 128.28 448.08 126.20 449.14 124.04 450.03 C 119.66 451.00 117.36 455.78 112.97 456.69 C 111.17 456.94 109.80 455.69 108.43 454.77 C 108.43 454.27 108.44 453.28 108.45 452.78 C 109.66 452.09 110.87 451.40 112.08 450.70 C 113.61 450.48 115.14 450.26 116.68 450.06 L 116.65 451.97 C 120.40 451.46 123.52 449.27 126.60 447.25 L 126.61 446.47 Z" />
<path fill="#fefbfb" d=" M 100.33 447.53 C 102.01 446.89 103.72 446.43 105.24 447.77 C 104.00 449.26 102.30 450.00 100.38 450.00 C 100.37 449.38 100.34 448.15 100.33 447.53 Z" />
<path fill="#fefbfb" d=" M 1063.38 446.15 C 1065.05 446.41 1066.61 447.11 1068.03 448.05 C 1066.71 448.66 1065.41 449.44 1063.93 449.47 C 1063.79 448.64 1063.52 446.98 1063.38 446.15 Z" />
<path fill="#fefbfb" d=" M 645.45 448.29 C 649.48 448.53 653.14 451.18 656.47 453.37 C 656.48 453.93 656.51 455.06 656.52 455.63 C 655.08 456.05 653.42 457.14 651.96 456.23 C 650.33 454.51 649.20 452.40 647.95 450.42 C 646.20 451.81 645.62 449.38 645.45 448.29 Z" />
<path fill="#fefbfb" d=" M 1041.02 449.90 C 1041.54 449.81 1042.57 449.62 1043.09 449.53 C 1043.92 450.93 1044.94 452.50 1044.24 454.21 C 1042.33 455.89 1039.74 456.95 1038.92 459.58 C 1037.61 459.31 1036.55 458.63 1036.34 457.24 C 1037.48 456.60 1038.64 455.91 1039.73 455.15 C 1039.29 454.13 1038.89 453.11 1038.51 452.10 C 1039.33 451.37 1040.17 450.63 1041.02 449.90 Z" />
<path fill="#ea1011" d=" M 39.93 451.18 C 46.36 452.27 52.39 454.96 58.61 456.85 C 57.55 464.27 56.97 471.74 57.46 479.24 C 55.10 479.71 52.16 479.33 50.47 481.39 C 47.53 484.49 46.12 488.81 45.92 493.02 C 45.82 495.78 47.78 497.89 49.27 499.99 C 49.28 500.24 49.30 500.74 49.31 500.99 C 46.76 503.52 47.34 507.83 50.08 509.97 C 51.74 511.46 54.05 511.44 56.13 511.62 C 58.51 509.10 59.22 505.84 58.51 502.49 C 60.00 502.42 61.48 502.37 62.97 502.32 C 61.78 503.69 60.08 505.02 60.77 507.09 C 61.83 509.04 64.32 508.67 66.16 509.20 C 67.01 512.09 67.90 514.96 68.85 517.82 C 68.55 517.83 67.94 517.85 67.64 517.87 C 67.24 516.37 66.82 514.90 66.38 513.43 C 65.41 513.50 63.46 513.64 62.49 513.71 C 62.48 514.51 62.46 516.13 62.45 516.93 C 64.85 517.47 64.48 519.88 64.67 521.76 C 60.19 520.21 55.60 518.92 50.83 518.78 C 52.27 520.27 53.93 521.53 55.67 522.66 C 55.64 523.02 55.58 523.74 55.55 524.10 C 53.91 524.36 52.27 524.64 50.63 524.93 C 48.35 517.90 46.37 510.76 43.75 503.84 C 42.82 500.92 41.56 498.06 41.26 495.00 C 41.92 493.96 42.72 493.02 43.47 492.05 C 43.17 491.43 42.58 490.18 42.28 489.55 C 41.64 489.53 40.36 489.49 39.72 489.46 C 36.37 476.93 37.32 463.74 39.93 451.18 Z" />
<path fill="#fefbfb" d=" M 766.28 451.64 C 766.91 451.64 768.17 451.65 768.80 451.66 C 769.41 452.11 770.03 452.57 770.66 453.03 C 770.51 454.48 770.36 455.94 770.21 457.41 C 769.43 457.51 767.88 457.71 767.10 457.81 C 766.48 455.81 766.12 453.74 766.28 451.64 Z" />
<path fill="#fefbfb" d=" M 90.40 455.94 C 91.73 455.76 93.06 455.59 94.39 455.44 C 94.40 456.43 94.42 457.43 94.43 458.43 C 93.03 458.50 91.64 458.58 90.25 458.66 C 90.29 457.98 90.36 456.62 90.40 455.94 Z" />
<path fill="#fefbfb" d=" M 721.40 456.50 C 722.51 456.57 723.63 456.66 724.76 456.75 C 724.72 458.68 723.53 459.57 721.67 459.55 C 721.57 458.53 721.48 457.51 721.40 456.50 Z" />
<path fill="#fefbfb" d=" M 134.57 457.21 C 135.73 457.92 137.86 458.09 137.59 459.96 C 138.40 462.16 135.85 462.11 134.48 462.69 C 134.41 460.86 134.43 459.03 134.57 457.21 Z" />
<path fill="#fefbfb" d=" M 506.91 456.37 C 508.90 459.43 510.38 463.62 508.35 467.04 C 505.89 472.21 503.45 478.44 497.73 480.73 C 496.64 478.21 496.27 475.50 496.37 472.77 C 503.13 470.43 505.47 462.65 506.91 456.37 Z" />
<path fill="#fefbfb" d=" M 645.73 460.68 C 646.99 459.83 648.25 459.00 649.54 458.20 C 649.58 459.27 649.58 460.35 649.54 461.43 C 648.35 462.07 647.03 462.36 645.74 462.66 C 645.74 462.17 645.74 461.17 645.73 460.68 Z" />
<path fill="#fefbfb" d=" M 1023.19 458.62 C 1023.80 458.61 1025.03 458.59 1025.64 458.58 C 1026.66 459.79 1027.69 461.02 1028.72 462.25 C 1028.27 462.56 1027.37 463.20 1026.92 463.51 C 1025.26 462.21 1023.86 460.64 1023.19 458.62 Z" />
<path fill="#ea1011" d=" M 807.47 460.97 C 808.82 460.63 809.25 461.19 808.76 462.63 C 807.36 462.93 806.93 462.38 807.47 460.97 Z" />
<path fill="#fefbfb" d=" M 172.41 468.12 C 174.11 465.59 175.79 462.58 179.02 461.86 C 178.39 465.42 175.43 467.67 173.00 470.04 C 170.93 471.88 169.22 474.06 167.25 476.00 C 168.73 473.21 170.78 470.80 172.41 468.12 Z" />
<path fill="#fefbfb" d=" M 650.01 462.28 C 653.40 462.09 658.06 463.17 657.61 467.57 C 655.71 467.61 653.83 467.59 651.96 467.51 C 651.29 465.77 650.61 464.03 650.01 462.28 Z" />
<path fill="#fefbfb" d=" M 201.89 466.62 C 202.93 466.33 203.98 466.04 205.03 465.75 C 206.09 466.06 207.16 466.37 208.23 466.67 C 209.91 469.09 210.60 472.98 208.11 475.12 C 206.55 476.98 203.97 477.12 201.80 477.78 C 200.46 475.64 197.91 473.66 198.67 470.85 C 199.57 469.30 200.76 467.98 201.89 466.62 Z" />
<path fill="#fefbfb" d=" M 145.98 472.41 C 150.25 471.43 155.18 470.32 159.18 472.75 C 164.67 477.53 166.07 485.02 168.64 491.49 C 169.26 493.86 171.47 492.18 172.53 491.15 C 175.34 488.73 178.20 486.37 181.03 483.97 C 181.46 483.94 182.31 483.87 182.73 483.83 C 179.16 488.03 174.64 491.25 170.73 495.11 C 172.64 500.63 175.32 506.00 179.79 509.89 C 177.23 510.07 175.29 508.50 173.42 507.02 C 174.80 511.27 174.66 515.76 175.17 520.15 C 175.25 519.59 175.40 518.47 175.47 517.91 C 177.40 517.68 178.41 515.99 179.61 514.71 C 181.83 512.08 184.32 509.70 186.62 507.15 C 186.36 508.08 186.09 509.00 185.82 509.93 C 183.50 515.49 180.47 520.86 176.33 525.27 C 174.08 527.86 169.68 528.91 167.07 526.28 C 165.92 526.72 164.79 527.19 163.65 527.65 C 158.43 512.52 153.67 497.24 148.58 482.06 C 147.56 478.89 146.30 475.76 145.98 472.41 Z" />
<path fill="#fefbfb" d=" M 570.42 472.24 C 579.06 479.62 583.71 490.34 591.91 498.09 C 591.81 499.54 590.73 500.66 590.14 501.92 C 581.73 493.45 575.35 483.06 570.42 472.24 Z" />
<path fill="#fefbfb" d=" M 373.12 477.42 C 373.58 477.50 374.50 477.65 374.96 477.73 C 376.55 480.27 378.09 482.84 379.60 485.43 C 381.95 485.26 385.88 485.79 385.57 488.99 C 386.02 490.88 383.78 491.16 382.64 491.97 C 382.62 492.31 382.57 492.97 382.55 493.30 C 383.92 493.40 385.31 493.51 386.70 493.62 C 386.64 494.55 386.53 496.40 386.48 497.33 C 385.50 497.44 383.55 497.66 382.57 497.78 C 378.78 491.33 374.95 484.73 373.12 477.42 Z" />
<path fill="#fefbfb" d=" M 565.48 479.42 C 567.14 479.76 568.79 480.16 570.44 480.58 C 570.49 481.20 570.58 482.44 570.62 483.06 C 570.02 483.55 569.43 484.05 568.85 484.56 C 568.34 484.51 567.31 484.40 566.80 484.34 C 566.37 482.69 565.92 481.06 565.48 479.42 Z" />
<path fill="#fefbfb" d=" M 935.99 482.19 C 937.12 480.74 938.45 479.46 939.96 478.41 C 939.74 479.67 939.51 480.94 939.27 482.22 C 938.17 482.21 937.08 482.20 935.99 482.19 Z" />
<path fill="#fefbfb" d=" M 953.72 482.25 C 955.73 481.98 957.66 482.89 959.38 483.85 C 960.24 486.07 958.44 487.96 957.08 489.46 C 955.35 489.83 953.77 488.86 952.21 488.35 C 952.52 486.33 951.44 483.41 953.72 482.25 Z" />
<path fill="#fefbfb" d=" M 326.64 485.46 C 327.21 483.20 330.36 484.48 330.76 486.44 C 333.05 488.78 329.81 493.78 326.89 492.35 C 326.27 490.11 326.13 487.73 326.64 485.46 Z" />
<path fill="#fefbfb" d=" M 304.66 488.78 C 307.77 487.50 311.16 486.87 314.13 488.87 C 314.57 489.93 315.02 490.99 315.48 492.05 C 314.73 494.04 314.19 496.44 312.05 497.40 C 309.34 498.48 306.27 497.49 303.85 496.12 C 303.09 493.67 303.76 491.10 304.66 488.78 Z" />
<path fill="#fefbfb" d=" M 264.42 490.79 C 269.89 489.57 275.51 489.41 281.09 489.19 C 282.43 489.05 283.67 489.65 284.90 490.10 C 278.06 490.89 271.14 491.19 264.36 492.46 C 264.37 492.05 264.40 491.21 264.42 490.79 Z" />
<path fill="#fefbfb" d=" M 936.29 488.69 C 938.01 488.67 939.73 489.10 941.43 489.46 C 941.72 490.70 942.03 491.94 942.35 493.19 C 941.23 493.61 940.11 494.03 939.01 494.46 C 938.39 494.13 937.15 493.47 936.52 493.14 C 936.36 491.66 936.28 490.17 936.29 488.69 Z" />
<path fill="#ea1011" d=" M 748.61 488.61 C 751.64 491.67 751.78 496.45 753.00 500.39 C 751.43 500.88 749.87 501.36 748.31 501.82 C 748.18 497.42 747.88 492.98 748.61 488.61 Z" />
<path fill="#fefbfb" d=" M 504.42 491.28 C 506.67 491.50 509.43 490.96 511.00 493.03 C 514.01 497.04 514.63 502.22 516.61 506.74 C 508.90 506.36 503.76 498.58 504.42 491.28 Z" />
<path fill="#fefbfb" d=" M 709.85 493.78 C 710.61 493.74 711.38 493.71 712.16 493.69 C 712.94 496.89 713.38 500.18 713.24 503.49 C 712.88 503.51 712.17 503.54 711.81 503.56 C 711.01 500.32 710.52 497.04 709.85 493.78 Z" />
<path fill="#fefbfb" d=" M 196.43 496.39 C 197.46 496.42 198.49 496.47 199.52 496.53 C 199.57 497.55 199.63 498.58 199.68 499.61 C 198.63 499.54 197.59 499.47 196.55 499.41 C 196.51 498.39 196.46 497.39 196.43 496.39 Z" />
<path fill="#fefbfb" d=" M 499.14 502.76 C 497.90 501.01 499.17 498.95 499.66 497.16 C 502.11 501.20 504.36 505.37 506.66 509.49 C 506.12 509.98 505.58 510.47 505.04 510.95 C 503.41 507.97 500.95 505.60 499.14 502.76 Z" />
<path fill="#fefbfb" d=" M 197.10 504.62 C 198.16 503.66 199.23 502.70 200.29 501.74 C 202.27 501.55 204.25 501.39 206.24 501.30 C 205.25 501.98 204.24 502.64 203.24 503.31 C 201.18 503.68 199.14 504.17 197.10 504.62 Z" />
<path fill="#fefbfb" d=" M 203.36 505.91 C 203.78 505.24 204.61 503.90 205.03 503.23 C 206.21 503.68 207.37 504.18 208.52 504.72 C 209.58 507.55 206.48 508.72 204.62 509.96 C 204.19 508.60 203.77 507.25 203.36 505.91 Z" />
<path fill="#ea1011" d=" M 854.71 504.42 C 855.62 504.42 856.54 504.46 857.47 504.56 C 861.72 509.87 865.14 516.16 870.84 520.11 C 865.54 521.33 860.74 524.56 855.19 524.56 C 853.99 526.21 851.93 526.48 850.13 527.04 C 844.31 528.64 838.81 531.41 832.76 532.11 C 829.65 533.87 826.22 534.92 822.85 536.04 C 803.03 542.45 783.30 549.08 763.49 555.48 C 763.54 552.40 763.95 549.35 764.69 546.36 C 763.91 546.62 763.16 546.92 762.43 547.26 C 762.66 549.99 762.88 552.74 763.26 555.47 C 753.10 559.10 742.77 562.22 732.58 565.75 C 732.62 564.95 732.71 563.35 732.76 562.55 C 731.28 561.41 729.83 560.22 728.13 559.47 C 726.11 559.91 724.25 560.86 722.53 561.97 C 722.03 564.37 723.79 566.28 724.82 568.27 C 701.52 575.97 678.17 583.51 654.92 591.34 C 638.60 596.21 622.72 602.53 606.24 606.83 C 605.01 605.81 603.78 604.80 602.55 603.79 C 594.33 602.33 586.26 599.70 578.81 595.92 C 583.05 594.07 587.52 592.85 591.95 591.55 C 612.80 584.56 633.71 577.74 654.59 570.82 C 657.43 569.89 660.20 568.68 663.16 568.15 C 664.95 567.54 665.49 569.76 666.06 570.90 C 668.57 570.23 670.33 568.14 671.05 565.70 C 677.53 562.75 684.55 561.28 691.19 558.74 C 733.75 544.87 776.24 530.73 818.78 516.79 C 827.24 514.12 835.57 511.07 844.10 508.62 C 847.75 512.96 849.59 518.74 854.32 522.17 C 852.07 517.96 849.02 514.25 846.63 510.13 C 846.45 509.49 846.08 508.20 845.90 507.56 C 848.71 507.39 851.55 507.47 854.37 507.14 C 854.46 506.46 854.62 505.10 854.71 504.42 Z" />
<path fill="#fefbfb" d=" M 510.42 507.90 C 514.48 510.94 517.90 514.79 521.31 518.54 C 521.67 518.61 522.41 518.76 522.78 518.84 C 522.70 517.90 522.54 516.04 522.45 515.10 C 523.19 516.05 523.91 517.00 524.64 517.97 C 523.83 520.42 526.18 521.52 528.13 521.52 C 530.18 523.78 531.87 527.11 535.43 526.89 C 534.69 528.53 533.96 530.18 533.30 531.86 C 532.06 532.09 530.66 532.37 529.71 531.30 C 527.32 529.04 526.59 525.63 525.25 522.73 C 523.23 521.48 520.71 520.64 519.74 518.27 C 519.12 516.18 515.73 516.91 516.15 514.15 C 513.76 512.54 512.02 510.24 510.42 507.90 Z" />
<path fill="#fefbfb" d=" M 287.42 516.39 C 289.03 517.63 290.66 518.85 292.30 520.06 C 293.43 526.62 294.90 533.21 297.56 539.35 C 296.13 541.18 294.59 542.92 293.00 544.60 C 292.41 544.63 291.25 544.69 290.67 544.72 C 291.86 535.01 285.90 526.12 287.42 516.39 Z" />
<path fill="#ea1011" d=" M 634.11 518.11 C 638.50 523.82 643.49 529.08 647.49 535.07 C 645.19 535.88 642.83 536.53 640.41 536.85 C 638.47 530.55 636.24 524.34 634.11 518.11 Z" />
<path fill="#fefbfb" d=" M 148.56 524.29 C 151.52 526.02 153.76 528.69 154.54 532.07 C 154.09 532.39 153.19 533.01 152.73 533.33 C 149.59 531.45 147.38 528.06 148.56 524.29 Z" />
<path fill="#fefbfb" d=" M 404.61 524.90 C 408.12 526.20 409.98 529.70 412.11 532.54 C 419.66 544.70 422.21 559.03 426.71 572.43 C 426.99 572.67 427.54 573.13 427.81 573.37 C 427.31 573.37 426.31 573.37 425.80 573.37 C 422.02 568.08 421.00 561.24 416.56 556.40 C 415.20 554.93 414.86 552.87 414.12 551.08 C 412.10 544.93 406.46 540.74 404.74 534.44 C 404.08 531.30 404.41 528.07 404.61 524.90 Z" />
<path fill="#ea1011" d=" M 71.11 528.74 C 71.38 528.73 71.93 528.71 72.21 528.70 C 75.64 536.60 77.54 545.04 80.68 553.04 C 78.80 553.19 77.18 554.12 75.95 555.52 C 78.19 556.16 79.83 554.90 81.28 553.40 C 81.38 554.66 81.49 555.93 81.59 557.22 C 80.83 557.34 79.31 557.59 78.55 557.71 C 78.78 559.30 79.04 560.91 79.32 562.50 C 80.76 562.42 82.21 562.41 83.66 562.46 C 85.16 566.27 86.07 570.30 87.53 574.14 C 86.94 575.18 86.57 576.30 86.43 577.50 C 84.70 577.53 83.39 578.24 82.51 579.64 C 84.95 579.73 87.40 579.73 89.85 579.71 C 89.38 582.55 87.40 584.83 87.05 587.71 C 88.36 587.21 89.66 586.71 90.95 586.20 C 90.15 588.31 89.45 590.47 89.13 592.72 C 90.66 592.61 92.18 592.42 93.71 592.38 C 95.11 597.54 97.32 602.51 97.96 607.85 C 94.55 608.55 91.03 608.80 87.75 610.04 C 88.73 610.86 89.73 611.68 90.74 612.49 C 90.10 615.29 88.59 618.31 90.11 621.10 C 91.13 623.88 93.61 625.68 95.75 627.57 C 98.82 627.79 101.76 627.01 104.72 626.38 C 105.82 628.78 106.46 631.36 107.17 633.91 C 104.52 641.07 109.97 647.53 113.38 653.35 C 115.92 659.93 118.31 666.63 120.02 673.48 C 118.60 673.43 117.17 673.39 115.75 673.36 C 115.43 674.05 114.80 675.43 114.48 676.12 C 115.86 678.32 117.35 680.46 118.84 682.60 C 120.51 682.63 122.18 682.67 123.85 682.71 C 124.87 687.71 130.19 691.52 128.62 696.95 C 127.46 697.88 126.18 698.75 125.26 699.96 C 124.56 705.42 126.25 711.01 129.93 715.13 C 130.82 715.87 131.71 716.63 132.61 717.39 C 134.10 717.45 135.59 717.54 137.08 717.67 C 141.17 720.34 146.44 720.30 151.04 719.20 C 153.49 718.56 155.62 715.63 158.29 716.94 C 168.63 721.31 179.91 722.90 191.07 722.37 C 186.19 722.59 180.91 724.06 177.89 728.19 C 174.82 732.36 179.15 737.03 178.54 741.62 C 153.59 740.22 130.02 726.76 115.08 706.91 C 114.36 706.15 114.08 704.96 115.06 704.30 C 117.89 701.57 118.95 697.73 119.66 693.99 C 117.98 691.53 116.45 688.71 113.64 687.38 C 110.85 685.61 107.35 686.34 104.46 687.44 C 102.43 682.14 100.12 676.72 100.30 670.95 C 100.15 668.35 99.58 665.81 99.38 663.23 C 98.60 663.32 97.05 663.49 96.28 663.58 C 95.02 658.81 93.43 654.13 91.74 649.49 C 90.21 645.32 91.15 640.35 88.47 636.62 C 84.92 632.12 84.56 626.15 82.39 621.02 C 82.92 620.57 83.46 620.14 84.00 619.73 C 85.33 620.29 86.68 619.98 87.98 619.59 C 86.53 618.97 85.06 618.38 83.58 617.86 L 83.73 619.37 C 83.21 619.31 82.18 619.18 81.66 619.12 C 81.08 616.47 80.10 613.93 79.01 611.47 C 79.77 611.57 81.29 611.78 82.05 611.88 C 82.41 612.46 82.77 613.06 83.14 613.66 C 83.23 613.11 83.41 612.01 83.50 611.46 C 82.57 610.50 81.65 609.56 80.72 608.63 C 80.13 609.36 79.55 610.10 78.96 610.85 C 76.53 601.49 72.25 592.69 70.39 583.18 C 71.97 582.23 72.69 580.64 72.99 578.90 C 75.75 577.35 78.73 576.07 81.10 573.94 C 83.25 568.64 78.60 562.86 73.75 561.03 C 73.80 559.71 73.84 558.40 73.89 557.10 C 72.76 557.20 70.52 557.40 69.40 557.50 C 69.34 558.69 69.29 559.90 69.25 561.11 C 67.51 562.24 65.93 563.63 64.91 565.47 C 64.67 565.39 64.19 565.24 63.95 565.16 C 61.10 556.78 58.70 548.26 55.65 539.95 C 56.21 539.53 57.34 538.69 57.90 538.27 C 54.77 536.76 52.86 533.95 53.24 530.40 C 58.26 531.51 63.44 531.37 68.51 530.75 C 69.76 530.63 70.62 529.96 71.11 528.74 Z" />
<path fill="#fefbfb" d=" M 159.88 542.55 C 160.36 540.69 161.07 538.91 161.93 537.20 C 163.57 538.74 165.43 540.77 163.28 542.77 C 162.43 542.72 160.73 542.60 159.88 542.55 Z" />
<path fill="#fefbfb" d=" M 557.25 542.32 C 561.28 542.91 562.47 547.00 564.28 550.00 C 564.00 550.35 563.44 551.06 563.16 551.41 C 562.90 551.40 562.39 551.38 562.13 551.37 C 560.65 548.25 557.45 545.98 557.25 542.32 Z" />
<path fill="#fefbfb" d=" M 273.48 554.50 C 274.63 553.43 275.62 552.13 277.02 551.37 C 278.67 550.99 280.22 551.81 281.74 552.36 C 280.16 554.20 277.73 554.97 275.82 556.41 C 275.31 556.34 274.30 556.21 273.80 556.15 C 273.72 555.74 273.56 554.91 273.48 554.50 Z" />
<path fill="#fefbfb" d=" M 178.55 561.14 C 179.65 561.47 180.76 561.81 181.84 562.25 C 181.18 563.48 179.70 563.48 178.53 563.87 C 178.53 563.19 178.54 561.82 178.55 561.14 Z" />
<path fill="#fefbfb" d=" M 198.43 561.40 C 201.71 559.86 205.37 560.22 208.86 560.63 C 207.38 564.95 201.98 565.08 198.44 563.43 C 198.44 562.92 198.43 561.91 198.43 561.40 Z" />
<path fill="#fefbfb" d=" M 143.87 564.62 C 146.63 564.32 148.53 566.81 147.60 569.44 C 146.49 569.49 145.37 569.55 144.26 569.61 C 143.65 568.74 143.04 567.87 142.42 567.01 C 142.89 566.20 143.35 565.38 143.87 564.62 Z" />
<path fill="#ea1011" d=" M 87.16 576.25 C 87.75 576.84 87.75 576.84 87.16 576.25 Z" />
<path fill="#fefbfb" d=" M 131.31 582.26 C 131.15 579.63 132.42 577.27 134.57 575.83 C 134.69 578.44 133.30 580.68 131.31 582.26 Z" />
<path fill="#ea1011" d=" M 67.96 577.51 C 68.68 577.55 70.12 577.65 70.84 577.70 C 70.56 579.03 70.27 580.35 69.95 581.68 C 69.26 580.29 68.61 578.90 67.96 577.51 Z" />
<path fill="#fefbfb" d=" M 434.38 578.50 C 435.41 578.54 436.44 578.58 437.48 578.64 C 437.44 579.95 437.47 581.27 437.29 582.59 C 436.61 583.90 434.91 583.40 433.72 583.69 C 433.91 581.95 434.14 580.23 434.38 578.50 Z" />
<path fill="#fefbfb" d=" M 149.88 581.58 C 152.39 581.55 154.89 581.85 157.30 582.60 C 156.00 586.42 151.31 585.26 148.25 585.45 C 148.79 584.15 149.34 582.86 149.88 581.58 Z" />
<path fill="#fefbfb" d=" M 155.74 593.64 C 156.08 590.00 159.12 587.95 162.02 586.32 C 162.61 586.42 163.79 586.61 164.38 586.70 C 163.34 590.64 160.28 594.41 155.74 593.64 Z" />
<path fill="#fefbfb" d=" M 296.51 590.64 C 296.25 588.89 296.23 587.13 296.47 585.39 C 298.35 585.31 300.23 585.29 302.11 585.34 C 302.44 586.00 303.11 587.33 303.45 587.99 C 303.13 588.68 302.50 590.05 302.19 590.74 C 300.29 590.75 298.40 590.71 296.51 590.64 Z" />
<path fill="#fefbfb" d=" M 207.55 592.62 C 209.24 592.34 210.94 592.08 212.64 591.84 C 212.58 593.84 212.35 595.85 211.36 597.63 C 210.42 597.71 208.54 597.87 207.60 597.94 C 207.16 596.19 207.23 594.38 207.55 592.62 Z" />
<path fill="#fefbfb" d=" M 237.77 597.34 C 237.42 595.62 238.44 594.07 238.85 592.47 C 240.59 592.77 242.34 593.14 244.08 593.51 C 243.79 594.76 243.58 596.04 243.08 597.24 C 241.40 598.03 239.49 597.90 237.77 597.34 Z" />
<path fill="#ea1011" d=" M 550.27 604.94 C 557.35 603.21 564.11 600.44 571.09 598.38 C 572.32 597.86 573.57 598.58 574.66 599.12 C 581.46 603.04 588.20 607.07 595.14 610.76 C 583.03 615.27 570.56 618.78 558.37 623.09 C 559.18 621.69 560.20 620.17 559.66 618.48 C 558.75 617.97 557.83 617.50 556.90 617.06 C 554.96 612.87 552.29 609.08 550.27 604.94 Z" />
<path fill="#fefbfb" d=" M 247.78 602.71 C 248.02 601.37 248.86 600.26 249.48 599.09 C 249.82 601.35 249.81 603.65 249.47 605.93 C 248.87 604.87 248.24 603.82 247.78 602.71 Z" />
<path fill="#fefbfb" d=" M 315.73 600.84 C 317.80 599.45 320.33 600.11 322.60 600.52 C 322.54 601.47 322.48 602.42 322.42 603.38 C 320.64 603.45 318.86 603.61 317.09 603.46 C 316.26 602.80 314.87 602.05 315.73 600.84 Z" />
<path fill="#fefbfb" d=" M 220.38 608.77 C 220.57 606.04 222.44 604.03 224.17 602.11 C 224.42 603.10 224.66 604.12 224.91 605.12 C 223.56 606.52 222.15 607.91 220.38 608.77 Z" />
<path fill="#fefbfb" d=" M 140.29 603.38 C 140.87 603.39 142.03 603.42 142.61 603.43 C 142.58 603.95 142.53 604.97 142.50 605.48 C 141.91 605.54 140.72 605.66 140.12 605.72 C 140.16 605.13 140.25 603.96 140.29 603.38 Z" />
<path fill="#ea1011" d=" M 502.34 620.86 C 517.70 616.06 532.86 610.61 548.29 606.06 C 551.74 611.59 556.14 617.14 555.50 624.09 C 539.87 629.20 524.15 634.04 508.67 639.59 C 506.29 633.44 503.70 627.33 502.34 620.86 Z" />
<path fill="#fefbfb" d=" M 229.59 610.92 C 230.05 608.65 232.27 607.93 234.14 607.21 C 236.08 608.71 237.71 610.56 237.87 613.15 C 236.10 613.94 234.33 614.76 232.59 615.63 C 231.26 614.31 229.66 612.95 229.59 610.92 Z" />
<path fill="#fefbfb" d=" M 209.17 613.47 C 209.67 611.66 209.93 609.46 211.79 608.49 C 214.09 607.89 215.91 609.52 217.71 610.65 C 216.90 612.37 216.09 614.11 215.27 615.83 C 212.93 615.95 210.87 615.02 209.17 613.47 Z" />
<path fill="#fefbfb" d=" M 241.75 611.69 C 243.83 610.59 246.14 610.10 248.49 610.04 C 247.03 612.45 244.46 613.61 241.68 613.41 C 241.70 612.98 241.73 612.12 241.75 611.69 Z" />
<path fill="#fefbfb" d=" M 166.06 618.47 C 167.20 618.05 168.35 617.65 169.50 617.27 C 169.32 618.75 169.49 620.40 168.53 621.67 C 167.06 621.19 166.33 619.92 166.06 618.47 Z" />
<path fill="#fefbfb" d=" M 153.36 622.74 C 154.74 621.53 155.81 619.34 157.91 619.47 C 162.28 619.38 164.52 625.76 161.27 628.57 C 158.56 629.24 155.87 628.41 153.44 627.26 C 153.41 625.75 153.38 624.24 153.36 622.74 Z" />
<path fill="#fefbfb" d=" M 215.60 619.15 C 216.91 619.88 218.23 620.62 219.55 621.36 C 219.57 622.11 219.62 623.59 219.65 624.33 C 218.35 624.77 217.05 625.22 215.76 625.67 C 215.32 625.20 214.46 624.26 214.03 623.78 C 214.51 622.22 215.05 620.68 215.60 619.15 Z" />
<path fill="#ea1011" d=" M 468.24 632.17 C 478.28 628.71 488.44 625.59 498.51 622.24 C 500.69 628.40 504.16 634.33 504.64 640.93 C 501.53 641.59 498.54 642.68 495.58 643.82 C 494.57 642.44 494.30 638.46 491.89 639.70 C 491.70 641.45 491.68 643.23 491.62 645.01 C 485.79 646.93 479.88 648.60 474.19 650.93 C 476.71 644.12 473.31 636.81 468.24 632.17 Z" />
<path fill="#fefbfb" d=" M 89.03 631.37 C 89.60 630.31 90.18 629.27 90.77 628.24 C 91.43 628.33 92.74 628.52 93.40 628.61 C 93.41 629.66 93.41 630.71 93.41 631.78 C 91.95 631.64 90.49 631.51 89.03 631.37 Z" />
<path fill="#fefbfb" d=" M 487.42 628.32 C 489.14 628.51 491.77 628.65 491.91 630.99 C 493.08 633.79 491.43 636.67 490.19 639.14 C 488.89 635.64 487.56 632.08 487.42 628.32 Z" />
<path fill="#ea1011" d=" M 455.50 635.97 C 459.07 635.22 462.54 634.07 466.03 633.02 C 466.46 637.11 466.60 641.29 467.81 645.25 C 468.62 647.98 471.40 649.29 473.41 651.01 C 454.49 657.08 435.69 663.58 416.73 669.55 C 414.16 667.42 413.26 664.14 411.77 661.31 C 410.23 658.22 408.18 655.46 406.20 652.66 C 416.50 649.00 426.96 645.83 437.33 642.36 C 441.67 646.93 442.25 654.32 448.01 657.61 C 448.70 657.60 450.07 657.59 450.76 657.59 C 449.36 650.74 442.66 647.32 439.05 641.83 C 442.34 640.58 445.70 639.36 449.25 639.10 C 449.43 641.29 449.62 643.50 449.82 645.71 C 454.36 645.10 456.89 640.16 455.50 635.97 Z" />
<path fill="#fefbfb" d=" M 297.21 640.21 C 297.20 637.80 297.41 635.04 300.07 634.18 C 303.52 633.62 305.48 638.49 302.52 640.49 C 301.23 642.93 298.92 640.93 297.21 640.21 Z" />
<path fill="#fefbfb" d=" M 192.00 646.66 C 194.12 645.95 196.35 645.88 198.49 646.54 C 198.54 647.56 198.63 649.59 198.67 650.61 C 196.63 650.64 194.59 650.62 192.55 650.54 C 192.36 649.24 192.17 647.94 192.00 646.66 Z" />
<path fill="#ea1011" d=" M 388.82 658.77 C 393.76 656.31 399.18 655.10 404.32 653.15 C 405.55 656.74 406.46 660.42 407.07 664.17 C 404.64 663.60 402.25 662.97 399.85 662.29 C 396.24 660.91 392.52 659.87 388.82 658.77 Z" />
<path fill="#fefbfb" d=" M 163.07 658.53 C 163.75 657.15 164.72 655.98 166.03 655.17 C 166.55 656.27 167.07 657.40 167.59 658.52 C 166.08 658.54 164.58 658.55 163.07 658.53 Z" />
<path fill="#ea1011" d=" M 377.03 662.18 C 379.17 661.67 381.48 659.75 383.57 661.36 C 391.08 665.37 398.71 669.16 406.27 673.07 C 404.52 673.69 402.77 674.29 401.00 674.84 C 383.66 680.37 366.48 686.46 349.07 691.71 C 349.14 690.94 349.24 690.18 349.35 689.42 C 348.86 689.32 347.86 689.11 347.37 689.01 C 346.86 687.80 346.10 686.75 345.03 686.00 C 341.57 683.26 338.75 679.81 335.30 677.06 C 339.69 681.26 344.13 685.44 347.79 690.32 C 347.81 690.69 347.86 691.41 347.88 691.78 C 346.41 692.99 344.52 693.42 342.74 693.99 C 330.08 698.04 317.52 702.38 304.86 706.44 C 299.99 701.18 294.96 696.09 290.03 690.91 C 309.64 684.13 329.48 678.03 349.12 671.30 C 358.50 668.52 367.66 665.04 377.03 662.18 Z" />
<path fill="#fefbfb" d=" M 117.34 684.08 C 120.62 684.47 123.88 686.20 125.01 689.48 C 122.41 688.76 119.88 687.76 117.56 686.38 C 117.51 685.80 117.40 684.66 117.34 684.08 Z" />
<path fill="#ea1011" d=" M 257.33 701.53 C 266.30 698.76 275.09 695.46 284.08 692.78 C 286.63 691.52 287.99 694.28 289.44 695.79 C 289.38 696.08 289.27 696.68 289.22 696.97 C 287.25 698.77 284.79 700.36 284.04 703.08 C 286.82 705.16 290.61 707.34 291.66 710.71 C 273.30 717.07 254.73 722.83 236.33 729.08 C 228.65 731.07 221.43 734.64 213.60 736.08 C 212.05 732.33 210.35 728.56 207.75 725.42 C 205.77 723.27 203.25 721.74 200.97 719.95 C 214.90 715.64 228.75 711.10 242.49 706.25 C 242.52 706.55 242.59 707.14 242.63 707.43 C 242.06 707.45 240.92 707.48 240.35 707.49 C 240.73 708.85 240.72 712.71 243.14 711.48 C 244.86 711.39 244.21 709.11 244.78 708.01 C 246.18 707.40 247.57 706.78 248.95 706.15 C 250.62 703.03 254.34 702.67 257.33 701.53 Z" />
<path fill="#ea1011" d=" M 291.09 699.42 C 294.11 701.63 296.55 704.50 299.42 706.88 C 299.45 707.22 299.51 707.89 299.53 708.22 C 298.13 708.67 296.74 709.16 295.34 709.64 C 292.53 706.93 290.44 703.51 291.09 699.42 Z" />
</svg>
